<?xml version="1.0" encoding="UTF-8"?>
<svg xmlns="http://www.w3.org/2000/svg" width="24" height="24" viewBox="0 0 120 120" fill="none">
  <g transform="translate(-1250, -320)">
    <path d="M1312.38 372.502H1315.73C1317.38 372.502 1318.73 373.844 1318.73 375.5V388.5C1318.73 390.156 1317.38 391.498 1315.73 391.498H1304.27C1302.62 391.498 1301.27 390.156 1301.27 388.5V380.213C1301.27 379.62 1301.5 379.05 1301.91 378.619L1306.99 373.229C1307.43 372.764 1308.04 372.5 1308.68 372.5H1312.32C1312.34 372.5 1312.36 372.501 1312.38 372.502ZM1314.8 379.033C1314.38 378.669 1313.75 378.711 1313.38 379.126L1309.45 383.625L1307.34 381.229C1306.98 380.814 1306.34 380.772 1305.93 381.137C1305.51 381.501 1305.47 382.133 1305.84 382.548L1308.58 385.669C1309.04 386.193 1309.86 386.193 1310.32 385.668L1314.89 380.443C1315.25 380.028 1315.21 379.397 1314.8 379.033ZM1303.49 379.208C1303.78 378.983 1304.14 378.848 1304.53 378.848H1306.37C1307.07 378.848 1307.63 378.284 1307.63 377.589V375.752C1307.63 375.353 1307.77 374.985 1308 374.697L1303.49 379.208Z" fill="#222222" />
  </g>
</svg>