<?xml version="1.0" encoding="UTF-8"?>
<svg xmlns="http://www.w3.org/2000/svg" width="24" height="24" viewBox="0 0 120 120" fill="none">
  <g transform="translate(-990, -320)">
    <path d="M1056 372C1057.66 372 1059 373.343 1059 375V389C1059 390.657 1057.66 392 1056 392H1044C1042.34 392 1041 390.657 1041 389V375C1041 373.343 1042.34 372 1044 372H1056ZM1046 386.274C1045.52 386.274 1045.13 386.666 1045.12 387.149C1045.12 387.633 1045.52 388.024 1046 388.024H1054C1054.48 388.024 1054.88 387.633 1054.88 387.149C1054.87 386.666 1054.48 386.274 1054 386.274H1046ZM1046 383.024C1045.52 383.024 1045.13 383.416 1045.12 383.899C1045.12 384.383 1045.52 384.774 1046 384.774H1054C1054.48 384.774 1054.88 384.383 1054.88 383.899C1054.87 383.416 1054.48 383.024 1054 383.024H1046ZM1046 379.774C1045.52 379.774 1045.13 380.166 1045.12 380.649C1045.12 381.133 1045.52 381.524 1046 381.524H1054C1054.48 381.524 1054.88 381.133 1054.88 380.649C1054.87 380.166 1054.48 379.774 1054 379.774H1046ZM1050 375.8C1049.31 375.8 1048.75 376.36 1048.75 377.05C1048.75 377.74 1049.31 378.3 1050 378.3C1050.69 378.3 1051.25 377.74 1051.25 377.05C1051.25 376.36 1050.69 375.8 1050 375.8Z" fill="#222222" />
  </g>
</svg>