<?xml version="1.0" encoding="UTF-8"?>
<svg xmlns="http://www.w3.org/2000/svg" width="24" height="24" viewBox="0 0 120 120" fill="none">
  <g transform="translate(-470, -320)">
    <path d="M523.75 372.75C522.093 372.75 520.75 374.093 520.75 375.75V376.419H539.25V375.75C539.25 374.093 537.907 372.75 536.25 372.75H523.75Z" fill="#222222" />
    <path fill-rule="evenodd" clip-rule="evenodd" d="M520.75 378.419V388.25C520.75 389.907 522.093 391.25 523.75 391.25H536.25C537.907 391.25 539.25 389.907 539.25 388.25V378.419H520.75ZM525.824 386.358C525.913 386.211 526.025 386.119 526.158 386.086C526.29 386.054 526.432 386.082 526.579 386.172C526.783 386.307 526.974 386.4 527.149 386.453C527.324 386.504 527.52 386.532 527.733 386.532C527.966 386.532 528.163 386.509 528.319 386.465C528.472 386.424 528.597 386.364 528.69 386.288C528.781 386.214 528.849 386.124 528.889 386.023C528.932 385.918 528.953 385.805 528.953 385.687V385.616C528.953 385.326 528.86 385.119 528.67 384.981C528.476 384.842 528.152 384.771 527.707 384.771H527.233C527.073 384.771 526.954 384.716 526.879 384.606C526.808 384.504 526.773 384.377 526.773 384.23C526.773 384.085 526.808 383.957 526.879 383.853C526.954 383.745 527.073 383.689 527.233 383.689H527.608C527.994 383.689 528.28 383.615 528.457 383.472C528.632 383.331 528.72 383.111 528.72 382.818V382.792C528.72 382.579 528.647 382.415 528.497 382.289C528.346 382.163 528.095 382.099 527.751 382.099C527.545 382.099 527.367 382.134 527.223 382.202C527.078 382.269 526.927 382.373 526.775 382.507C526.652 382.618 526.516 382.665 526.37 382.649C526.226 382.632 526.106 382.565 526.014 382.447C525.918 382.331 525.873 382.202 525.884 382.065C525.893 381.928 525.943 381.805 526.033 381.696C526.229 381.482 526.473 381.311 526.758 381.186C527.044 381.063 527.381 381 527.761 381C528.127 381 528.45 381.045 528.723 381.136C528.996 381.227 529.226 381.35 529.406 381.503C529.586 381.656 529.722 381.836 529.808 382.039C529.894 382.242 529.937 382.455 529.937 382.675V382.719C529.937 382.886 529.912 383.051 529.863 383.213C529.814 383.375 529.742 383.528 529.647 383.664C529.552 383.802 529.435 383.924 529.301 384.024C529.21 384.091 529.112 384.149 529.006 384.197C529.117 384.222 529.227 384.257 529.334 384.3C529.5 384.368 529.649 384.464 529.779 384.582C529.908 384.703 530.012 384.853 530.089 385.029C530.166 385.204 530.205 385.414 530.205 385.651V385.74C530.205 385.997 530.153 386.243 530.048 386.472C529.944 386.702 529.79 386.905 529.589 387.079C529.388 387.253 529.136 387.392 528.84 387.494C528.544 387.598 528.198 387.65 527.814 387.65C527.461 387.65 527.132 387.612 526.836 387.536C526.541 387.46 526.257 387.337 525.991 387.168C525.842 387.071 525.754 386.943 525.732 386.788C525.709 386.637 525.74 386.493 525.824 386.358ZM531.093 382.435C531.12 382.284 531.209 382.164 531.36 382.078L532.871 381.238C533.028 381.155 533.165 381.093 533.281 381.056C533.398 381.019 533.515 381 533.627 381C533.809 381 533.962 381.042 534.084 381.124C534.211 381.212 534.276 381.352 534.276 381.542V387.019C534.276 387.21 534.211 387.35 534.084 387.436C533.963 387.52 533.818 387.562 533.655 387.562C533.489 387.562 533.345 387.52 533.224 387.436C533.097 387.35 533.032 387.21 533.032 387.019V382.476L531.954 383.095C531.792 383.186 531.635 383.203 531.491 383.147C531.35 383.093 531.239 382.993 531.162 382.852C531.091 382.724 531.068 382.584 531.093 382.435Z" fill="#222222" />
  </g>
</svg>