<?xml version="1.0" encoding="UTF-8"?>
<svg xmlns="http://www.w3.org/2000/svg" width="24" height="24" viewBox="0 0 120 120" fill="none">
  <g transform="translate(-600, -320)">
    <path d="M666.3 373C667.791 373 669 374.209 669 375.7V383.001C669 383.526 668.842 384.039 668.548 384.474C668.326 384.801 668.033 385.075 667.69 385.273L667.575 385.34L667.206 385.563C667.181 385.579 667.157 385.596 667.136 385.616L667.131 385.621C667.074 385.673 667.034 385.74 667.014 385.814C667.005 385.849 667 385.884 667 385.92V388.3C667 389.791 665.791 391 664.3 391H653.7C652.209 391 651 389.791 651 388.3V375.7C651 374.209 652.209 373 653.7 373H666.3ZM659.03 376.5C657.767 376.5 656.738 377.526 656.738 378.786V379.425C656.738 380.127 656.991 380.793 657.352 381.405C657.496 381.648 657.568 381.918 657.568 382.197C657.568 382.719 657.307 383.205 656.874 383.493L655.187 384.6C654.573 385.005 654.203 385.689 654.203 386.418V386.715C654.203 387.048 654.474 387.309 654.799 387.309H663.252C663.586 387.309 663.848 387.039 663.848 386.715H663.856V386.418C663.856 385.689 663.487 385.005 662.873 384.6L661.187 383.493C660.754 383.205 660.491 382.719 660.491 382.197C660.491 381.918 660.564 381.639 660.708 381.405C661.069 380.793 661.321 380.136 661.321 379.425V378.786C661.321 377.526 660.293 376.5 659.03 376.5Z" fill="#222222" />
  </g>
</svg>