<?xml version="1.0" encoding="UTF-8"?>
<svg xmlns="http://www.w3.org/2000/svg" width="24" height="24" viewBox="0 0 120 120" fill="none">
  <g transform="translate(-730, -320)">
    <path d="M789 382.567V392.006C788.826 391.943 788.656 391.865 788.494 391.769L782.443 388.176C781.549 387.645 781 386.681 781 385.641V378.36C781 378.169 781.018 377.981 781.054 377.798L789 382.567ZM798.945 377.798C798.981 377.981 799 378.169 799 378.36V385.641C799 386.681 798.451 387.645 797.557 388.176L791.506 391.769C791.344 391.865 791.174 391.943 791 392.006V382.567L798.945 377.798ZM788.494 372.231C789.422 371.68 790.578 371.68 791.506 372.231L797.557 375.823C797.686 375.9 797.807 375.987 797.921 376.08L790 380.834L782.078 376.08C782.192 375.987 782.314 375.9 782.443 375.823L788.494 372.231Z" fill="#222222" />
  </g>
</svg>