<?xml version="1.0" encoding="UTF-8"?>
<svg xmlns="http://www.w3.org/2000/svg" width="24" height="24" viewBox="0 0 120 120" fill="none">
  <g transform="translate(-340, -320)">
    <path d="M409 388C409 389.657 407.657 391 406 391H394C392.343 391 391 389.657 391 388V381.028L398.937 386.012C399.587 386.421 400.413 386.421 401.063 386.012L409 381.028V388Z" fill="#222222" />
    <path d="M405 373C406.657 373 408 374.343 408 376V379.31L401.06 383.647C400.411 384.053 399.589 384.053 398.94 383.647L392 379.31V376C392 374.343 393.343 373 395 373H405ZM396.5 378.375C396.017 378.375 395.625 378.767 395.625 379.25C395.625 379.733 396.017 380.125 396.5 380.125H400.5C400.983 380.125 401.375 379.733 401.375 379.25C401.375 378.767 400.983 378.375 400.5 378.375H396.5ZM396.5 375.375C396.017 375.375 395.625 375.767 395.625 376.25C395.625 376.733 396.017 377.125 396.5 377.125H403.5C403.983 377.125 404.375 376.733 404.375 376.25C404.375 375.767 403.983 375.375 403.5 375.375H396.5Z" fill="#222222" />
  </g>
</svg>