<?xml version="1.0" encoding="UTF-8"?>
<svg xmlns="http://www.w3.org/2000/svg" width="24" height="24" viewBox="0 0 120 120" fill="none">
  <g transform="translate(-210, -320)">
    <path d="M270 372.25C275.098 372.25 279.237 376.113 279.237 380.861C279.237 385.61 275.098 389.472 270 389.473H268.108C266.829 389.473 265.568 389.828 264.476 390.483L262.664 391.573C262.459 391.688 262.237 391.75 262.015 391.75C261.802 391.75 261.589 391.697 261.403 391.591C261.003 391.369 260.763 390.953 260.763 390.501V380.861C260.763 376.113 264.903 372.25 270 372.25ZM265.638 379.514C264.93 379.514 264.355 380.089 264.355 380.797C264.355 381.505 264.93 382.079 265.638 382.079C266.346 382.079 266.92 381.505 266.92 380.797C266.92 380.089 266.346 379.514 265.638 379.514ZM270 379.514C269.291 379.514 268.718 380.089 268.717 380.797C268.717 381.505 269.291 382.079 270 382.079C270.708 382.079 271.283 381.505 271.283 380.797C271.282 380.089 270.708 379.514 270 379.514ZM274.362 379.514C273.654 379.514 273.079 380.089 273.079 380.797C273.079 381.505 273.654 382.079 274.362 382.079C275.07 382.079 275.644 381.505 275.644 380.797C275.644 380.089 275.07 379.514 274.362 379.514Z" fill="#222222" />
  </g>
</svg>