<?xml version="1.0" encoding="UTF-8"?>
<svg xmlns="http://www.w3.org/2000/svg" width="24" height="24" viewBox="0 0 120 120" fill="none">
  <g transform="translate(-210, -450)">
    <path fill-rule="evenodd" clip-rule="evenodd" d="M261.301 505.5C261.301 503.844 262.644 502.501 264.3 502.501H275.7C277.356 502.501 278.699 503.844 278.699 505.5V519.125C278.699 520.682 277.125 521.746 275.68 521.165L270.204 518.965C270.073 518.913 269.927 518.913 269.796 518.965L264.32 521.165C262.875 521.746 261.301 520.682 261.301 519.125V505.5ZM266.097 514.712V514.476C266.097 513.914 266.385 513.394 266.865 513.085L268.26 512.193C268.647 511.947 268.877 511.531 268.877 511.084C268.877 510.844 268.81 510.611 268.686 510.407C268.352 509.858 268.188 509.35 268.188 508.856V508.341C268.188 507.373 268.999 506.587 269.998 506.587C270.997 506.587 271.808 507.373 271.808 508.341V508.858C271.808 509.351 271.646 509.858 271.311 510.408C271.186 510.611 271.12 510.846 271.12 511.084C271.12 511.531 271.352 511.947 271.737 512.193L273.131 513.085C273.615 513.394 273.903 513.914 273.903 514.476V514.712C273.903 514.928 273.722 515.103 273.499 515.103H266.501C266.277 515.103 266.097 514.928 266.097 514.712Z" fill="#222222" />
  </g>
</svg>