<?xml version="1.0" encoding="UTF-8"?>
<svg xmlns="http://www.w3.org/2000/svg" width="24" height="24" viewBox="0 0 120 120" fill="none">
  <g transform="translate(-80, -450)">
    <path d="M145 513C147.209 513 149 514.791 149 517C149 519.209 147.209 521 145 521C142.791 521 141 519.209 141 517C141 514.791 142.791 513 145 513ZM145 514.625C144.517 514.625 144.125 515.017 144.125 515.5V517C144.125 517.307 144.286 517.592 144.55 517.75L145.8 518.5C146.214 518.749 146.751 518.614 147 518.2C147.249 517.786 147.114 517.249 146.7 517L145.875 516.505V515.5C145.875 515.017 145.483 514.625 145 514.625Z" fill="#222222" />
    <path d="M148 511.804C147.117 511.293 146.093 511 145 511C141.686 511 139 513.686 139 517C139 518.093 139.294 519.117 139.805 520H135C133.343 520 132 518.657 132 517V509H148V511.804ZM145 504C146.657 504 148 505.343 148 507H132C132 505.343 133.343 504 135 504H145Z" fill="#222222" />
    <path d="M136 503.5V505" stroke="#222222" stroke-width="2" stroke-linecap="round" />
    <path d="M144 503.5V505" stroke="#222222" stroke-width="2" stroke-linecap="round" />
  </g>
</svg>