<?xml version="1.0" encoding="UTF-8"?>
<svg xmlns="http://www.w3.org/2000/svg" width="24" height="24" viewBox="0 0 120 120" fill="none">
  <g transform="translate(-1120, -320)">
    <path d="M1183.9 372C1184.47 372 1184.94 372.439 1185 373H1186C1187.66 373 1189 374.343 1189 376V389C1189 390.657 1187.66 392 1186 392H1174C1172.34 392 1171 390.657 1171 389V376C1171 374.343 1172.34 373 1174 373H1175C1175.06 372.439 1175.53 372 1176.1 372H1183.9ZM1179 383.625C1178.24 383.625 1177.62 384.241 1177.62 385V387C1177.62 387.759 1178.24 388.375 1179 388.375H1181C1181.76 388.375 1182.38 387.759 1182.38 387V385C1182.38 384.241 1181.76 383.625 1181 383.625H1179ZM1180.62 385.375V386.625H1179.38V385.375H1180.62ZM1182.29 378.637C1181.9 378.341 1181.36 378.409 1181.06 378.789L1179.67 380.573L1178.81 379.848C1178.44 379.538 1177.89 379.585 1177.58 379.953C1177.27 380.322 1177.32 380.872 1177.69 381.183L1179.24 382.492C1179.42 382.645 1179.66 382.717 1179.9 382.692C1180.13 382.668 1180.35 382.548 1180.49 382.36L1182.44 379.86C1182.73 379.48 1182.67 378.933 1182.29 378.637ZM1177 374V374.5C1177 374.776 1177.22 375 1177.5 375H1182.5C1182.78 375 1183 374.776 1183 374.5V374H1177Z" fill="#222222" />
  </g>
</svg>