<?xml version="1.0" encoding="UTF-8"?>
<svg xmlns="http://www.w3.org/2000/svg" width="24" height="24" viewBox="0 0 120 120" fill="none">
  <g transform="translate(-860, -320)">
    <path d="M920 373C922.813 373 925.323 374.291 926.974 376.312L920 383.286L917.107 380.394C916.717 380.003 916.084 380.003 915.693 380.394C915.303 380.784 915.303 381.417 915.693 381.808L919.293 385.407C919.683 385.797 920.317 385.797 920.707 385.407L928.079 378.034C928.668 379.231 929 380.576 929 382C929 386.971 924.971 391 920 391C915.029 391 911 386.971 911 382C911 377.029 915.029 373 920 373Z" fill="#222222" />
  </g>
</svg>