<?xml version="1.0" encoding="UTF-8"?>
<svg xmlns="http://www.w3.org/2000/svg" width="24" height="24" viewBox="0 0 120 120" fill="none">
  <g transform="translate(-470, -1830)">
    <path fill-rule="evenodd" clip-rule="evenodd" d="M539.202 1892.58C539.733 1892.37 539.733 1891.62 539.202 1891.42L538.24 1891.06C537.646 1890.83 537.178 1890.35 536.944 1889.76L536.576 1888.8C536.369 1888.27 535.622 1888.27 535.424 1888.8L535.055 1889.76C534.831 1890.35 534.354 1890.82 533.76 1891.06L532.798 1891.42C532.267 1891.63 532.267 1892.38 532.798 1892.58L533.76 1892.94C534.354 1893.17 534.822 1893.65 535.055 1894.24L535.424 1895.2C535.631 1895.73 536.378 1895.73 536.576 1895.2L536.944 1894.24C537.169 1893.65 537.646 1893.18 538.24 1892.94L539.202 1892.58Z" fill="#222222" />
    <line x1="522.6" y1="1878.6" x2="537.4" y2="1878.6" stroke="#222222" stroke-width="2" stroke-linecap="round" stroke-linejoin="round" />
    <line x1="522.6" y1="1885.4" x2="537.4" y2="1885.4" stroke="#222222" stroke-width="2" stroke-linecap="round" stroke-linejoin="round" />
    <line x1="522.6" y1="1892.21" x2="529.6" y2="1892.21" stroke="#222222" stroke-width="2" stroke-linecap="round" stroke-linejoin="round" />
  </g>
</svg>