<?xml version="1.0" encoding="UTF-8"?>
<svg xmlns="http://www.w3.org/2000/svg" width="24" height="24" viewBox="0 0 120 120" fill="none">
  <g transform="translate(-210, -1830)">
    <path d="M274.955 1879.28L266.536 1887.7" stroke="#222222" stroke-width="2" stroke-linecap="round" stroke-linejoin="round" />
    <path d="M266.536 1884.33L274.955 1892.75" stroke="#222222" stroke-width="2" stroke-linecap="round" stroke-linejoin="round" />
    <path fill-rule="evenodd" clip-rule="evenodd" d="M280.402 1886.58C280.933 1886.37 280.933 1885.62 280.402 1885.42L279.44 1885.06C278.846 1884.83 278.378 1884.35 278.145 1883.76L277.776 1882.8C277.569 1882.27 276.822 1882.27 276.624 1882.8L276.256 1883.76C276.031 1884.35 275.554 1884.82 274.96 1885.06L273.998 1885.42C273.467 1885.63 273.467 1886.38 273.998 1886.58L274.96 1886.94C275.554 1887.17 276.022 1887.65 276.256 1888.24L276.624 1889.2C276.831 1889.73 277.578 1889.73 277.776 1889.2L278.145 1888.24C278.369 1887.65 278.846 1887.18 279.44 1886.94L280.402 1886.58Z" fill="#222222" />
  </g>
</svg>