<?xml version="1.0" encoding="UTF-8"?>
<svg xmlns="http://www.w3.org/2000/svg" width="24" height="24" viewBox="0 0 120 120" fill="none">
  <g transform="translate(-860, -1830)">
    <path fill-rule="evenodd" clip-rule="evenodd" d="M929.802 1892.58C930.333 1892.37 930.333 1891.62 929.802 1891.42L928.84 1891.06C928.246 1890.83 927.778 1890.35 927.544 1889.76L927.176 1888.8C926.969 1888.27 926.222 1888.27 926.024 1888.8L925.656 1889.76C925.431 1890.35 924.954 1890.82 924.36 1891.06L923.398 1891.42C922.867 1891.63 922.867 1892.38 923.398 1892.58L924.36 1892.94C924.954 1893.17 925.422 1893.65 925.656 1894.24L926.024 1895.2C926.231 1895.73 926.978 1895.73 927.176 1895.2L927.544 1894.24C927.769 1893.65 928.246 1893.18 928.84 1892.94L929.802 1892.58Z" fill="#222222" />
    <path fill-rule="evenodd" clip-rule="evenodd" d="M916.702 1880.73C917.1 1880.58 917.1 1880.02 916.702 1879.87L915.98 1879.59C915.535 1879.42 915.184 1879.07 915.008 1878.62L914.732 1877.9C914.577 1877.5 914.017 1877.5 913.868 1877.9L913.592 1878.62C913.423 1879.07 913.066 1879.42 912.62 1879.59L911.899 1879.87C911.501 1880.02 911.501 1880.58 911.899 1880.73L912.62 1881.01C913.066 1881.18 913.416 1881.53 913.592 1881.98L913.868 1882.7C914.024 1883.1 914.583 1883.1 914.732 1882.7L915.008 1881.98C915.177 1881.53 915.535 1881.18 915.98 1881.01L916.702 1880.73Z" fill="#222222" />
    <path d="M919.7 1890.23C919.7 1892.06 918.223 1893.53 916.4 1893.53C915.813 1893.53 913.515 1893.53 911.795 1893.53C911.051 1893.53 910.676 1892.64 911.197 1892.11C911.384 1891.92 911.559 1891.74 911.702 1891.6C912.876 1890.41 913.179 1888.8 914.034 1887.93C914.633 1887.32 915.472 1886.93 916.4 1886.93C918.223 1886.93 919.7 1888.41 919.7 1890.23Z" stroke="#222222" stroke-width="2" />
    <path d="M917.498 1886.97L926.268 1878.2C926.539 1877.93 926.979 1877.93 927.251 1878.2L928.796 1879.75C929.068 1880.02 929.068 1880.46 928.796 1880.73L919.967 1889.56" stroke="#222222" stroke-width="2" />
  </g>
</svg>