<?xml version="1.0" encoding="UTF-8"?>
<svg xmlns="http://www.w3.org/2000/svg" width="24" height="24" viewBox="0 0 120 120" fill="none">
  <g transform="translate(-210, -3240)">
    <path d="M268 3310.5C268 3311.6 268.896 3312.5 270 3312.5C271.104 3312.5 272 3311.6 272 3310.5" stroke="#222222" stroke-width="2" stroke-miterlimit="10" />
    <path d="M261.5 3295.5L278.5 3312.5" stroke="#222222" stroke-width="1.5" stroke-linecap="round" stroke-linejoin="round" />
    <path d="M264.489 3301.67C264.596 3301.78 264.648 3301.93 264.635 3302.08C264.61 3302.37 264.596 3302.68 264.596 3303C264.596 3303.27 264.554 3304.09 264.515 3304.81C264.505 3305 264.495 3305.18 264.486 3305.35C264.477 3305.52 264.468 3305.68 264.46 3305.82C264.453 3305.96 264.447 3306.08 264.443 3306.16C264.438 3306.27 264.437 3306.29 264.437 3306.28C264.437 3306.44 264.401 3306.59 264.332 3306.73L263.418 3308.55C263.324 3308.8 263.321 3309.07 263.383 3309.2C263.403 3309.24 263.44 3309.3 263.549 3309.36C263.673 3309.42 263.922 3309.5 264.375 3309.5H272.108C272.24 3309.5 272.368 3309.55 272.461 3309.65L274.077 3311.26C274.166 3311.35 274.125 3311.5 274 3311.5H264.375C263.011 3311.5 262.014 3311 261.569 3310.04C261.18 3309.2 261.363 3308.31 261.572 3307.79L261.605 3307.71L262.403 3306.11C262.434 3306.05 262.451 3305.98 262.455 3305.91C262.471 3305.6 262.495 3305.14 262.518 3304.7C262.559 3303.94 262.596 3303.2 262.596 3303C262.596 3302.28 262.652 3301.61 262.759 3300.98C262.824 3300.6 263.286 3300.47 263.559 3300.74L264.489 3301.67ZM270 3294.5C270.552 3294.5 271 3294.95 271 3295.5C271 3296.05 270.552 3296.5 270 3296.5C268.597 3296.5 267.266 3297 266.286 3298.01C265.929 3298.38 265.609 3298.83 265.345 3299.36C265.182 3299.7 264.734 3299.8 264.473 3299.54L263.756 3298.82C263.607 3298.67 263.566 3298.44 263.666 3298.25C263.995 3297.64 264.392 3297.09 264.849 3296.62C266.25 3295.17 268.121 3294.5 270 3294.5Z" fill="#222222" />
    <path d="M270 3294.5C271.879 3294.5 273.75 3295.17 275.15 3296.62C276.555 3298.07 277.403 3300.22 277.403 3303C277.403 3303.2 277.441 3303.94 277.481 3304.7C277.505 3305.14 277.529 3305.6 277.544 3305.91C277.548 3305.98 277.566 3306.05 277.597 3306.11L278.394 3307.71L278.428 3307.79C278.636 3308.31 278.819 3309.2 278.431 3310.04C278.103 3310.75 277.478 3311.2 276.629 3311.39C276.473 3311.43 276.312 3311.38 276.199 3311.26L274.638 3309.7C274.593 3309.66 274.605 3309.58 274.665 3309.56C274.683 3309.55 274.7 3309.55 274.718 3309.54C274.727 3309.54 274.733 3309.52 274.733 3309.51C274.733 3309.5 274.742 3309.5 274.754 3309.5H275.625C276.077 3309.5 276.326 3309.42 276.45 3309.36C276.559 3309.3 276.596 3309.24 276.616 3309.2C276.678 3309.07 276.675 3308.8 276.581 3308.55L275.668 3306.73C275.598 3306.59 275.562 3306.44 275.562 3306.28C275.562 3306.27 275.56 3306.24 275.557 3306.16C275.552 3306.08 275.546 3305.96 275.539 3305.82C275.532 3305.68 275.523 3305.52 275.514 3305.35C275.504 3305.18 275.494 3305 275.484 3304.81C275.446 3304.09 275.403 3303.27 275.403 3303C275.403 3300.63 274.69 3299.02 273.714 3298.01C272.733 3297 271.402 3296.5 270 3296.5C269.448 3296.5 269 3296.05 269 3295.5C269 3294.95 269.448 3294.5 270 3294.5Z" fill="#222222" />
  </g>
</svg>