<?xml version="1.0" encoding="UTF-8"?>
<svg xmlns="http://www.w3.org/2000/svg" width="24" height="24" viewBox="0 0 120 120" fill="none">
  <g transform="translate(-470, -3240)">
    <path d="M538.4 3298.64C538.289 3298.64 538.2 3298.55 538.2 3298.44V3293.2C538.2 3293.09 538.289 3293 538.4 3293H539.602C539.712 3293 539.802 3293.09 539.802 3293.2V3298.44C539.802 3298.55 539.712 3298.64 539.602 3298.64H538.4Z" fill="#222222" />
    <path d="M536.2 3298.64C536.09 3298.64 536 3298.55 536 3298.44V3293.2C536 3293.09 536.09 3293 536.2 3293H537.402C537.512 3293 537.602 3293.09 537.602 3293.2V3298.44C537.602 3298.55 537.512 3298.64 537.402 3298.64H536.2Z" fill="#222222" />
    <path d="M529.876 3298.64C529.74 3298.64 529.644 3298.5 529.686 3298.37L531.408 3293.14C531.435 3293.06 531.512 3293 531.598 3293H533.402C533.488 3293 533.565 3293.06 533.592 3293.14L535.314 3298.37C535.356 3298.5 535.26 3298.64 535.124 3298.64H533.799C533.708 3298.64 533.629 3298.58 533.606 3298.49L533.35 3297.52H531.65L531.394 3298.49C531.371 3298.58 531.292 3298.64 531.201 3298.64H529.876ZM532.484 3294.34L531.957 3296.35H533.043L532.516 3294.34H532.484Z" fill="#222222" />
    <path d="M530 3310.5C528.75 3310.5 526.625 3310.5 524.375 3310.5C522.125 3310.5 522.188 3308.94 522.5 3308.16L523.438 3306.28C523.438 3306.12 523.596 3303.47 523.596 3303C523.596 3298.92 525.555 3296.6 528 3295.81" stroke="#222222" stroke-width="2" stroke-linecap="round" stroke-linejoin="round" />
    <path d="M530 3310.5C531.25 3310.5 533.375 3310.5 535.625 3310.5C537.875 3310.5 537.812 3308.94 537.5 3308.16L536.562 3306.28C536.562 3306.12 536.404 3303.47 536.404 3303C536.404 3302.28 536.343 3301.61 536.229 3301" stroke="#222222" stroke-width="2" stroke-linecap="round" stroke-linejoin="round" />
    <path d="M528 3310.5C528 3311.6 528.896 3312.5 530 3312.5C531.104 3312.5 532 3311.6 532 3310.5" stroke="#222222" stroke-width="2" stroke-miterlimit="10" />
  </g>
</svg>