<?xml version="1.0" encoding="UTF-8"?>
<svg xmlns="http://www.w3.org/2000/svg" width="24" height="24" viewBox="0 0 120 120" fill="none">
  <g transform="translate(-340, -3240)">
    <path d="M406.268 3293C406.727 3293 407.127 3293.31 407.239 3293.76L407.457 3294.64C407.604 3294.71 407.745 3294.79 407.88 3294.88L408.753 3294.63C409.194 3294.51 409.665 3294.7 409.895 3295.09L410.364 3295.91C410.593 3296.3 410.523 3296.81 410.193 3297.12L409.54 3297.76C409.546 3297.84 409.549 3297.92 409.549 3298C409.549 3298.08 409.546 3298.16 409.54 3298.24L410.193 3298.88C410.523 3299.19 410.593 3299.7 410.364 3300.09L409.895 3300.91C409.665 3301.3 409.194 3301.49 408.753 3301.37L407.88 3301.12C407.745 3301.21 407.604 3301.29 407.457 3301.36L407.239 3302.24C407.127 3302.69 406.727 3303 406.268 3303H405.329C404.871 3303 404.471 3302.69 404.36 3302.24L404.139 3301.36C403.992 3301.29 403.851 3301.21 403.716 3301.12L402.844 3301.37C402.403 3301.49 401.933 3301.3 401.703 3300.91L401.234 3300.09C401.004 3299.7 401.075 3299.19 401.405 3298.88L402.057 3298.24C402.052 3298.16 402.049 3298.08 402.049 3298C402.049 3297.92 402.052 3297.84 402.057 3297.76L401.405 3297.12C401.075 3296.81 401.004 3296.3 401.234 3295.91L401.703 3295.09C401.933 3294.7 402.403 3294.51 402.844 3294.63L403.716 3294.88C403.851 3294.79 403.992 3294.71 404.139 3294.64L404.36 3293.76C404.471 3293.31 404.871 3293 405.329 3293H406.268ZM405.799 3296.29C404.854 3296.29 404.088 3297.06 404.088 3298C404.088 3298.94 404.854 3299.71 405.799 3299.71C406.744 3299.71 407.509 3298.94 407.509 3298C407.509 3297.06 406.744 3296.29 405.799 3296.29Z" fill="#222222" />
    <path d="M400 3310.5C398.75 3310.5 396.625 3310.5 394.375 3310.5C392.125 3310.5 392.188 3308.94 392.5 3308.16L393.438 3306.28C393.438 3306.12 393.596 3303.47 393.596 3303C393.596 3298.92 395.555 3296.6 398 3295.81C398.093 3295.78 398.187 3295.75 398.281 3295.73" stroke="#222222" stroke-width="2" stroke-linecap="round" stroke-linejoin="round" />
    <path d="M406.562 3306.28L407.5 3308.16C407.812 3308.94 407.875 3310.5 405.625 3310.5C403.375 3310.5 401.25 3310.5 400 3310.5" stroke="#222222" stroke-width="2" stroke-linecap="round" stroke-linejoin="round" />
    <path d="M398 3310.5C398 3311.6 398.896 3312.5 400 3312.5C401.104 3312.5 402 3311.6 402 3310.5" stroke="#222222" stroke-width="2" stroke-miterlimit="10" />
  </g>
</svg>