<?xml version="1.0" encoding="UTF-8"?>
<svg xmlns="http://www.w3.org/2000/svg" width="24" height="24" viewBox="0 0 120 120" fill="none">
  <g transform="translate(-1250, -320)">
    <path d="M1306.59 381.888L1309.33 385.009C1309.39 385.08 1309.5 385.08 1309.56 385.009L1314.14 379.785" stroke="#222222" stroke-width="2" stroke-linecap="round" stroke-linejoin="round" />
    <path d="M1310 373.5H1315.73C1316.83 373.5 1317.73 374.395 1317.73 375.5V388.5C1317.73 389.605 1316.83 390.5 1315.73 390.5H1304.27C1303.17 390.5 1302.27 389.605 1302.27 388.5V382" stroke="#222222" stroke-width="1.99621" />
    <path d="M1312.32 372.5C1312.75 372.5 1313.1 372.847 1313.1 373.274V373.339C1313.1 373.98 1312.58 374.5 1311.94 374.5H1309.23C1308.37 374.5 1307.68 375.194 1307.68 376.049V377.742C1307.68 378.383 1307.16 378.903 1306.52 378.903H1304.82C1303.96 378.903 1303.27 379.596 1303.27 380.451V383.161C1303.27 383.802 1302.75 384.322 1302.11 384.322H1302.05C1301.62 384.322 1301.27 383.976 1301.27 383.549V380.213C1301.27 379.62 1301.5 379.05 1301.91 378.619L1306.99 373.229C1307.43 372.764 1308.04 372.5 1308.68 372.5H1312.32Z" fill="#222222" />
  </g>
</svg>