<?xml version="1.0" encoding="UTF-8"?>
<svg xmlns="http://www.w3.org/2000/svg" width="24" height="24" viewBox="0 0 120 120" fill="none">
  <g transform="translate(-470, -320)">
    <path d="M536.25 372.75C537.907 372.75 539.25 374.093 539.25 375.75V388.25C539.25 389.907 537.907 391.25 536.25 391.25H523.75C522.093 391.25 520.75 389.907 520.75 388.25V375.75C520.75 374.093 522.093 372.75 523.75 372.75H536.25ZM522.75 378.419V388.25C522.75 388.802 523.198 389.25 523.75 389.25H536.25C536.802 389.25 537.25 388.802 537.25 388.25V378.419H522.75ZM523.75 374.75C523.198 374.75 522.75 375.198 522.75 375.75V376.419H537.25V375.75C537.25 375.198 536.802 374.75 536.25 374.75H523.75Z" fill="#222222" />
    <path d="M525.824 385.858C525.913 385.711 526.025 385.619 526.158 385.586C526.29 385.554 526.432 385.582 526.579 385.672C526.783 385.807 526.974 385.9 527.149 385.953C527.324 386.004 527.52 386.032 527.733 386.032C527.966 386.032 528.163 386.009 528.319 385.965C528.472 385.924 528.597 385.864 528.69 385.788C528.781 385.714 528.849 385.624 528.889 385.523C528.932 385.418 528.953 385.305 528.953 385.187V385.116C528.953 384.826 528.86 384.619 528.67 384.481C528.476 384.342 528.152 384.271 527.707 384.271H527.233C527.073 384.271 526.954 384.216 526.879 384.106C526.808 384.004 526.773 383.877 526.773 383.73C526.773 383.585 526.808 383.457 526.879 383.353C526.954 383.245 527.073 383.189 527.233 383.189H527.608C527.994 383.189 528.28 383.115 528.457 382.972C528.632 382.831 528.72 382.611 528.72 382.318V382.292C528.72 382.079 528.647 381.915 528.497 381.789C528.346 381.663 528.095 381.599 527.751 381.599C527.545 381.599 527.367 381.634 527.223 381.702C527.078 381.769 526.927 381.873 526.775 382.007C526.652 382.118 526.516 382.165 526.37 382.149C526.226 382.132 526.106 382.065 526.014 381.947C525.918 381.831 525.873 381.702 525.884 381.565C525.893 381.428 525.943 381.305 526.033 381.196C526.229 380.982 526.473 380.811 526.758 380.686C527.044 380.563 527.381 380.5 527.761 380.5C528.127 380.5 528.45 380.545 528.723 380.636C528.996 380.727 529.226 380.85 529.406 381.003C529.586 381.155 529.722 381.336 529.808 381.539C529.894 381.742 529.937 381.955 529.937 382.175V382.219C529.937 382.386 529.912 382.551 529.863 382.713C529.814 382.875 529.742 383.028 529.647 383.164C529.552 383.302 529.435 383.424 529.301 383.524C529.21 383.591 529.112 383.649 529.006 383.697C529.117 383.722 529.227 383.757 529.334 383.8C529.5 383.868 529.649 383.964 529.779 384.082C529.908 384.203 530.012 384.353 530.089 384.529C530.166 384.704 530.205 384.914 530.205 385.151V385.24C530.205 385.497 530.153 385.743 530.048 385.972C529.944 386.202 529.79 386.405 529.589 386.579C529.388 386.753 529.136 386.892 528.84 386.994C528.544 387.098 528.198 387.15 527.814 387.15C527.461 387.15 527.132 387.112 526.836 387.036C526.541 386.96 526.257 386.836 525.991 386.668C525.842 386.571 525.754 386.443 525.732 386.288C525.709 386.137 525.74 385.993 525.824 385.858Z" fill="#222222" />
    <path d="M531.093 381.935C531.12 381.784 531.209 381.664 531.36 381.578L532.871 380.738C533.028 380.655 533.165 380.593 533.281 380.556C533.398 380.519 533.515 380.5 533.627 380.5C533.809 380.5 533.962 380.542 534.084 380.624C534.211 380.712 534.276 380.852 534.276 381.042V386.519C534.276 386.71 534.211 386.85 534.084 386.936C533.963 387.02 533.818 387.062 533.655 387.062C533.489 387.062 533.345 387.02 533.224 386.936C533.097 386.85 533.032 386.71 533.032 386.519V381.976L531.954 382.595C531.792 382.686 531.635 382.703 531.491 382.647C531.35 382.593 531.239 382.493 531.162 382.353C531.091 382.224 531.068 382.084 531.093 381.935Z" fill="#222222" />
  </g>
</svg>