<?xml version="1.0" encoding="UTF-8"?>
<svg xmlns="http://www.w3.org/2000/svg" width="24" height="24" viewBox="0 0 120 120" fill="none">
  <g transform="translate(-600, -320)">
    <path d="M668 375.7L669 375.7V375.7L668 375.7ZM668 383.001L669 383.001V383.001L668 383.001ZM666.455 384.883L665.775 384.15L665.775 384.15L666.455 384.883ZM666.45 384.888L667.13 385.621L667.13 385.621L666.45 384.888ZM667.189 384.408L666.687 383.543H666.687L667.189 384.408ZM667.066 384.479L666.565 383.614L666.557 383.619L666.55 383.623L667.066 384.479ZM666.689 384.707L667.206 385.563L667.206 385.563L666.689 384.707ZM666.048 385.557L665.081 385.299V385.299L666.048 385.557ZM667.72 383.913L666.892 383.352L666.892 383.352L667.72 383.913ZM667 387C667 386.448 666.552 386 666 386C665.448 386 665 386.448 665 387H666H667ZM666 385.92H665V387.193H666H667V385.92H666ZM666.455 384.883L665.775 384.15L665.77 384.155L666.45 384.888L667.13 385.621L667.135 385.616L666.455 384.883ZM667.189 384.408L666.687 383.543L666.565 383.614L667.066 384.479L667.568 385.345L667.69 385.274L667.189 384.408ZM667.066 384.479L666.55 383.623L666.173 383.851L666.689 384.707L667.206 385.563L667.583 385.336L667.066 384.479ZM666.455 384.883L667.135 385.616C667.157 385.596 667.181 385.578 667.206 385.563L666.689 384.707L666.173 383.851C666.03 383.937 665.897 384.037 665.775 384.15L666.455 384.883ZM666.048 385.557L667.014 385.815C667.034 385.74 667.074 385.673 667.13 385.621L666.45 384.888L665.77 384.155C665.437 384.463 665.198 384.86 665.081 385.299L666.048 385.557ZM666 385.92H667C667 385.884 667.005 385.849 667.014 385.815L666.048 385.557L665.081 385.299C665.027 385.501 665 385.71 665 385.92H666ZM667.72 383.913L666.892 383.352C666.839 383.431 666.769 383.496 666.687 383.543L667.189 384.408L667.69 385.274C668.033 385.075 668.326 384.802 668.548 384.474L667.72 383.913ZM668 383.001L667 383.001C667 383.126 666.962 383.249 666.892 383.352L667.72 383.913L668.548 384.474C668.843 384.039 669 383.526 669 383.001L668 383.001ZM666.3 374V375C666.687 375 667 375.313 667 375.7L668 375.7L669 375.7C669 374.209 667.791 373 666.3 373V374ZM664.3 390V389H653.7V390V391H664.3V390ZM652 388.3H653V375.7H652H651V388.3H652ZM666 387H665V388.3H666H667V387H666ZM653.7 390V389C653.313 389 653 388.687 653 388.3H652H651C651 389.791 652.209 391 653.7 391V390ZM664.3 390V391C665.791 391 667 389.791 667 388.3H666H665C665 388.687 664.687 389 664.3 389V390ZM652 375.7H653C653 375.313 653.313 375 653.7 375V374V373C652.209 373 651 374.209 651 375.7H652ZM653.7 374V375H666.3V374V373H653.7V374ZM668 375.7L667 375.7L667 383.001L668 383.001L669 383.001L669 375.7L668 375.7Z" fill="#222222" />
    <path d="M659.03 377.275C660.114 377.275 660.995 378.161 660.995 379.24V379.79C660.995 380.302 660.844 380.85 660.468 381.483L660.451 381.51L660.438 381.539C660.368 381.679 660.317 381.834 660.296 382.001L660.285 382.17L660.296 382.342C660.348 382.737 660.577 383.065 660.872 383.269L660.888 383.281L662.328 384.23L662.331 384.232C662.863 384.58 663.175 385.164 663.175 385.79V386.03L663.174 386.035C663.173 386.047 663.171 386.063 663.167 386.087L663.164 386.1L663.162 386.114C663.13 386.351 662.92 386.544 662.66 386.545H655.4C655.109 386.544 654.885 386.312 654.885 386.04V385.79C654.885 385.171 655.202 384.583 655.73 384.232L657.18 383.282L657.186 383.278C657.555 383.032 657.775 382.605 657.775 382.17C657.775 381.946 657.719 381.715 657.6 381.505L657.595 381.498L657.463 381.259C657.18 380.714 657.065 380.238 657.065 379.79V379.24C657.065 378.153 657.943 377.275 659.03 377.275Z" stroke="#222222" stroke-width="1.75" />
  </g>
</svg>