<?xml version="1.0" encoding="UTF-8"?>
<svg xmlns="http://www.w3.org/2000/svg" width="24" height="24" viewBox="0 0 120 120" fill="none">
  <g transform="translate(-730, -320)">
    <path d="M782.954 376.684L789.005 373.091C789.618 372.727 790.382 372.727 790.995 373.091L797.046 376.684C797.638 377.035 798 377.672 798 378.359V385.641C798 386.328 797.638 386.965 797.046 387.316L790.995 390.909C790.382 391.273 789.618 391.273 789.005 390.909L782.954 387.316C782.362 386.965 782 386.328 782 385.641V378.359C782 377.672 782.362 377.035 782.954 376.684Z" stroke="#222222" stroke-width="2" stroke-linejoin="round" />
    <path d="M790 390.708V382M782.5 377.5L790 382M790 382L797.5 377.5" stroke="#222222" stroke-width="2" stroke-linecap="round" stroke-linejoin="round" />
  </g>
</svg>