<?xml version="1.0" encoding="UTF-8"?>
<svg xmlns="http://www.w3.org/2000/svg" width="24" height="24" viewBox="0 0 120 120" fill="none">
  <g transform="translate(-80, -320)">
    <path d="M138.45 374.082C139.298 373.355 140.486 373.309 141.376 373.945L141.55 374.082L147.35 379.066V379.067L147.352 379.068C148.079 379.692 148.5 380.603 148.5 381.574V388.664C148.5 389.677 147.676 390.5 146.668 390.5H143.562C143.157 390.5 142.827 390.171 142.827 389.762V384.09C142.827 383.283 142.179 382.633 141.37 382.633H138.63C137.821 382.633 137.173 383.283 137.173 384.09V389.762C137.173 390.171 136.843 390.5 136.438 390.5H133.332C132.324 390.5 131.5 389.677 131.5 388.664V381.574C131.5 380.614 131.92 379.7 132.653 379.064L132.652 379.063L138.45 374.082Z" stroke="#222222" stroke-width="2" />
  </g>
</svg>