<?xml version="1.0" encoding="UTF-8"?>
<svg xmlns="http://www.w3.org/2000/svg" width="24" height="24" viewBox="0 0 120 120" fill="none">
  <g transform="translate(-210, -320)">
    <path d="M270 373.5C274.482 373.5 278 376.881 278 380.891C278 384.901 274.482 388.281 270 388.281H268.156C266.727 388.281 265.32 388.677 264.103 389.408H264.102L262.36 390.456C262.297 390.492 262.248 390.5 262.22 390.5C262.176 390.5 262.141 390.488 262.118 390.476L262.107 390.47C262.042 390.433 262 390.366 262 390.283V380.891L262.01 380.517C262.22 376.673 265.658 373.5 270 373.5Z" stroke="#222222" stroke-width="2" />
    <circle cx="265.75" cy="380.828" r="1.25" fill="#222222" />
    <circle cx="270" cy="380.828" r="1.25" fill="#222222" />
    <circle cx="274.25" cy="380.828" r="1.25" fill="#222222" />
  </g>
</svg>