<?xml version="1.0" encoding="UTF-8"?>
<svg xmlns="http://www.w3.org/2000/svg" width="24" height="24" viewBox="0 0 120 120" fill="none">
  <g transform="translate(-210, -450)">
    <path d="M277.7 519.125V505.5C277.7 504.395 276.805 503.5 275.7 503.5H264.3C263.195 503.5 262.3 504.395 262.3 505.5V519.125C262.3 519.974 263.159 520.555 263.947 520.238L269.423 518.038C269.793 517.89 270.207 517.89 270.577 518.038L276.053 520.238C276.841 520.555 277.7 519.974 277.7 519.125Z" stroke="#222222" stroke-width="1.99778" />
    <path d="M266.097 514.476V514.712C266.097 514.928 266.277 515.103 266.501 515.103H273.499C273.723 515.103 273.903 514.928 273.903 514.712V514.476C273.903 513.914 273.615 513.394 273.131 513.085L271.737 512.193C271.352 511.947 271.12 511.531 271.12 511.084C271.12 510.846 271.186 510.611 271.311 510.408C271.647 509.858 271.808 509.351 271.808 508.858V508.341C271.808 507.373 270.997 506.587 269.998 506.587C268.999 506.587 268.188 507.373 268.188 508.341V508.856C268.188 509.35 268.352 509.858 268.686 510.407C268.81 510.611 268.877 510.844 268.877 511.084C268.877 511.531 268.647 511.947 268.26 512.193L266.866 513.085C266.385 513.394 266.097 513.914 266.097 514.476Z" stroke="#222222" stroke-width="1.75" />
  </g>
</svg>