<?xml version="1.0" encoding="UTF-8"?>
<svg xmlns="http://www.w3.org/2000/svg" width="24" height="24" viewBox="0 0 120 120" fill="none">
  <g transform="translate(-1120, -320)">
    <path d="M1178.5 385C1178.5 384.724 1178.72 384.5 1179 384.5H1181C1181.28 384.5 1181.5 384.724 1181.5 385V387C1181.5 387.276 1181.28 387.5 1181 387.5H1179C1178.72 387.5 1178.5 387.276 1178.5 387V385Z" stroke="#222222" stroke-width="1.75" stroke-linecap="round" />
    <path d="M1176 373.1C1176 373.045 1176.04 373 1176.1 373H1183.9C1183.96 373 1184 373.045 1184 373.1V374.5C1184 375.328 1183.33 376 1182.5 376H1177.5C1176.67 376 1176 375.328 1176 374.5V373.1Z" stroke="#222222" stroke-width="2" stroke-linecap="round" />
    <path d="M1186 373C1187.66 373 1189 374.343 1189 376V389C1189 390.657 1187.66 392 1186 392H1174C1172.34 392 1171 390.657 1171 389V376C1171 374.343 1172.34 373 1174 373H1176V375H1174C1173.45 375 1173 375.448 1173 376V389C1173 389.552 1173.45 390 1174 390H1186C1186.55 390 1187 389.552 1187 389V376C1187 375.448 1186.55 375 1186 375H1184V373H1186Z" fill="#222222" />
    <path d="M1178.25 380.515L1179.81 381.825L1181.75 379.325" stroke="#222222" stroke-width="1.745" stroke-linecap="round" stroke-linejoin="round" />
  </g>
</svg>