<?xml version="1.0" encoding="UTF-8"?>
<svg xmlns="http://www.w3.org/2000/svg" width="24" height="24" viewBox="0 0 120 120" fill="none">
  <g transform="translate(-860, -320)">
    <path d="M916.4 381.1L920 384.7L929 375.7" stroke="#222222" stroke-width="2" stroke-linecap="round" stroke-linejoin="round" />
    <path d="M920 373.001C923.419 373.002 926.391 374.908 927.914 377.716C928.016 377.904 927.977 378.135 927.826 378.287L927.11 379.002C926.853 379.26 926.412 379.165 926.248 378.84C925.093 376.561 922.73 375 920 374.999C916.134 374.999 913 378.134 913 382C913 385.867 916.134 389.001 920 389.001C923.867 389.001 927.001 385.867 927.001 382C927.001 381.94 927 381.879 926.998 381.819C926.994 381.676 927.045 381.538 927.146 381.437L928.109 380.474C928.385 380.198 928.851 380.331 928.907 380.717C928.967 381.136 929 381.565 929 382C928.999 386.97 924.97 390.999 920 390.999C915.031 390.999 911.002 386.97 911.001 382C911.001 377.031 915.031 373.001 920 373.001Z" fill="#222222" />
  </g>
</svg>