<?xml version="1.0" encoding="UTF-8"?>
<svg xmlns="http://www.w3.org/2000/svg" width="24" height="24" viewBox="0 0 120 120" fill="none">
  <g transform="translate(-340, -1830)">
    <path d="M396.097 1894.09C395.863 1894.32 395.547 1894.46 395.217 1894.46L392.04 1894.47C391.762 1894.47 391.537 1894.24 391.538 1893.97L391.549 1890.79C391.55 1890.46 391.681 1890.14 391.915 1889.91L400.66 1881.16L404.842 1885.35L396.097 1894.09ZM407.901 1879.38C408.703 1880.18 408.703 1881.48 407.901 1882.29L406.256 1883.93L402.074 1879.75L403.719 1878.1C404.521 1877.3 405.822 1877.3 406.625 1878.1L407.901 1879.38Z" fill="#222222" />
    <path fill-rule="evenodd" clip-rule="evenodd" d="M409.802 1892.58C410.333 1892.37 410.333 1891.62 409.802 1891.42L408.84 1891.06C408.246 1890.83 407.778 1890.35 407.544 1889.76L407.176 1888.8C406.969 1888.27 406.222 1888.27 406.024 1888.8L405.656 1889.76C405.431 1890.35 404.954 1890.82 404.36 1891.06L403.398 1891.42C402.867 1891.63 402.867 1892.38 403.398 1892.58L404.36 1892.94C404.954 1893.17 405.422 1893.65 405.656 1894.24L406.024 1895.2C406.231 1895.73 406.978 1895.73 407.176 1895.2L407.544 1894.24C407.769 1893.65 408.246 1893.18 408.84 1892.94L409.802 1892.58Z" fill="#222222" />
    <path fill-rule="evenodd" clip-rule="evenodd" d="M396.702 1880.73C397.1 1880.58 397.1 1880.02 396.702 1879.87L395.98 1879.59C395.535 1879.42 395.184 1879.07 395.008 1878.62L394.732 1877.9C394.577 1877.5 394.017 1877.5 393.868 1877.9L393.592 1878.62C393.423 1879.07 393.066 1879.42 392.62 1879.59L391.899 1879.87C391.501 1880.02 391.501 1880.58 391.899 1880.73L392.62 1881.01C393.066 1881.18 393.416 1881.53 393.592 1881.98L393.868 1882.7C394.024 1883.1 394.583 1883.1 394.732 1882.7L395.008 1881.98C395.177 1881.53 395.535 1881.18 395.98 1881.01L396.702 1880.73Z" fill="#222222" />
  </g>
</svg>