<?xml version="1.0" encoding="UTF-8"?>
<svg xmlns="http://www.w3.org/2000/svg" width="24" height="24" viewBox="0 0 120 120" fill="none">
  <g transform="translate(-600, -1830)">
    <circle cx="660" cy="1886" r="9.6" stroke="#222222" stroke-width="2.5" stroke-linecap="round" stroke-linejoin="round" stroke-dasharray="2.04 5.11" />
    <path fill-rule="evenodd" clip-rule="evenodd" d="M664.447 1886.8C665.184 1886.51 665.184 1885.48 664.447 1885.2L663.111 1884.69C662.286 1884.38 661.636 1883.71 661.312 1882.89L660.8 1881.55C660.512 1880.82 659.475 1880.82 659.201 1881.55L658.688 1882.89C658.376 1883.71 657.714 1884.36 656.889 1884.69L655.553 1885.2C654.816 1885.49 654.816 1886.52 655.553 1886.8L656.889 1887.31C657.714 1887.62 658.364 1888.29 658.688 1889.11L659.201 1890.45C659.488 1891.18 660.525 1891.18 660.8 1890.45L661.312 1889.11C661.624 1888.29 662.286 1887.64 663.111 1887.31L664.447 1886.8Z" fill="#222222" />
  </g>
</svg>