<?xml version="1.0" encoding="UTF-8"?>
<svg xmlns="http://www.w3.org/2000/svg" width="24" height="24" viewBox="0 0 120 120" fill="none">
  <g transform="translate(-80, -1830)">
    <path d="M140 1876.4C145.302 1876.4 149.6 1880.7 149.6 1886C149.6 1891.3 145.302 1895.6 140 1895.6C136.593 1895.6 133.601 1893.83 131.897 1891.15" stroke="#222222" stroke-width="2.5" stroke-linecap="round" stroke-linejoin="round" />
    <path d="M130.4 1886C130.4 1880.7 134.698 1876.4 140 1876.4" stroke="#222222" stroke-width="2.5" stroke-linecap="round" stroke-linejoin="round" stroke-dasharray="1.8 3.6" />
    <path d="M134.6 1890.8L132.6 1890.8C132.048 1890.8 131.6 1891.25 131.6 1891.8L131.6 1893.8" stroke="#222222" stroke-width="2.5" stroke-linecap="round" stroke-linejoin="round" />
    <path fill-rule="evenodd" clip-rule="evenodd" d="M144.447 1886.8C145.185 1886.51 145.185 1885.48 144.447 1885.2L143.111 1884.69C142.286 1884.38 141.637 1883.71 141.312 1882.89L140.8 1881.55C140.512 1880.82 139.476 1880.82 139.201 1881.55L138.689 1882.89C138.376 1883.71 137.714 1884.36 136.89 1884.69L135.553 1885.2C134.816 1885.49 134.816 1886.52 135.553 1886.8L136.89 1887.31C137.714 1887.62 138.364 1888.29 138.689 1889.11L139.201 1890.45C139.488 1891.18 140.525 1891.18 140.8 1890.45L141.312 1889.11C141.624 1888.29 142.286 1887.64 143.111 1887.31L144.447 1886.8Z" fill="#222222" />
  </g>
</svg>