<?xml version="1.0" encoding="UTF-8"?>
<svg xmlns="http://www.w3.org/2000/svg" width="24" height="24" viewBox="0 0 120 120" fill="none">
  <g transform="translate(-600, -1540)">
    <path d="M659.941 1591.83C659.383 1591.03 658.454 1590.5 657.403 1590.5C655.7 1590.5 654.316 1591.88 654.316 1593.59V1594.5C654.316 1595.37 654.595 1596.26 655.165 1597.23C655.377 1597.59 655.491 1598 655.491 1598.42C655.491 1599.21 655.098 1599.94 654.439 1600.37L652.061 1601.95C651.241 1602.49 650.75 1603.41 650.75 1604.39V1604.81C650.75 1605.19 651.058 1605.5 651.439 1605.5H652.256H657.019" stroke="#222222" stroke-width="2" />
    <path d="M658.503 1605.5H656.629C656.248 1605.5 655.94 1605.19 655.94 1604.81V1604.39C655.94 1603.41 656.431 1602.49 657.251 1601.95L659.628 1600.37C660.288 1599.94 660.681 1599.21 660.681 1598.42C660.681 1598 660.567 1597.59 660.355 1597.23C659.785 1596.26 659.506 1595.37 659.506 1594.5V1593.59C659.506 1591.88 660.89 1590.5 662.593 1590.5C664.297 1590.5 665.68 1591.88 665.68 1593.59V1594.5C665.68 1595.27 665.465 1596.05 665.022 1596.89" stroke="#222222" stroke-width="2" stroke-linecap="round" />
    <path d="M662 1604L670 1604" stroke="#222222" stroke-width="1.75" stroke-linecap="round" />
    <path d="M666 1600L666 1608" stroke="#222222" stroke-width="1.75" stroke-linecap="round" />
  </g>
</svg>