<?xml version="1.0" encoding="UTF-8"?>
<svg xmlns="http://www.w3.org/2000/svg" width="24" height="24" viewBox="0 0 120 120" fill="none">
  <g transform="translate(-470, -1540)">
    <path d="M528.695 1606H523.635C523.229 1606 522.9 1605.67 522.9 1605.26V1604.82C522.9 1603.77 523.424 1602.79 524.298 1602.21L526.834 1600.53C527.538 1600.07 527.957 1599.29 527.957 1598.45C527.957 1598 527.836 1597.56 527.61 1597.18C527.002 1596.15 526.704 1595.19 526.704 1594.26V1593.29C526.704 1591.48 528.18 1590 529.997 1590C531.814 1590 533.29 1591.48 533.29 1593.29V1594.27C533.29 1595.19 532.995 1596.15 532.384 1597.18C532.158 1597.56 532.037 1598 532.037 1598.45C532.037 1599.02 532.232 1599.56 532.577 1600" stroke="#222222" stroke-width="2" stroke-linecap="round" />
    <path d="M532 1604L540 1604" stroke="#222222" stroke-width="1.75" stroke-linecap="round" />
    <path d="M536 1600L536 1608" stroke="#222222" stroke-width="1.75" stroke-linecap="round" />
  </g>
</svg>