<?xml version="1.0" encoding="UTF-8"?>
<svg xmlns="http://www.w3.org/2000/svg" width="24" height="24" viewBox="0 0 120 120" fill="none">
  <g transform="translate(-340, -1410)">
    <circle cx="400" cy="1465" r="8" stroke="#222222" stroke-width="2" stroke-linecap="round" stroke-linejoin="round" />
    <path d="M395.245 1470.88C395.415 1470.54 395.667 1470.24 395.985 1470.02L397.771 1468.78C398.266 1468.44 398.561 1467.86 398.561 1467.24C398.561 1466.91 398.476 1466.58 398.317 1466.3C397.889 1465.54 397.679 1464.83 397.679 1464.15V1463.43C397.679 1462.09 398.718 1461 399.998 1461C401.277 1461 402.317 1462.09 402.317 1463.43V1464.15C402.317 1464.84 402.109 1465.54 401.679 1466.3C401.52 1466.58 401.435 1466.91 401.435 1467.24C401.435 1467.86 401.731 1468.44 402.225 1468.78L404.011 1470.02C404.379 1470.27 404.659 1470.63 404.825 1471.04" stroke="#222222" stroke-width="1.75" stroke-linecap="round" />
  </g>
</svg>