<?xml version="1.0" encoding="UTF-8"?>
<svg xmlns="http://www.w3.org/2000/svg" width="24" height="24" viewBox="0 0 120 120" fill="none">
  <g transform="translate(-860, -1540)">
    <path d="M921.25 1604.25L924.25 1607.25L929.25 1601.75" stroke="#222222" stroke-width="1.75" stroke-linecap="round" stroke-linejoin="round" />
    <path d="M918.308 1606H913.635C913.229 1606 912.9 1605.67 912.9 1605.26V1604.82C912.9 1603.77 913.424 1602.79 914.298 1602.21L916.834 1600.53C917.538 1600.07 917.957 1599.29 917.957 1598.45C917.957 1598 917.836 1597.56 917.609 1597.18C917.002 1596.15 916.704 1595.19 916.704 1594.26V1593.29C916.704 1591.48 918.18 1590 919.997 1590C921.814 1590 923.289 1591.48 923.289 1593.29V1594.27C923.289 1595.19 922.995 1596.15 922.384 1597.18C922.158 1597.56 922.037 1598 922.037 1598.45C922.037 1599.29 922.459 1600.07 923.159 1600.53L924.396 1601.35" stroke="#222222" stroke-width="2" stroke-linecap="round" />
  </g>
</svg>