<?xml version="1.0" encoding="UTF-8"?>
<svg xmlns="http://www.w3.org/2000/svg" width="24" height="24" viewBox="0 0 120 120" fill="none">
  <g transform="translate(-990, -1540)">
    <path d="M1041.3 1597.17V1597.41C1041.3 1597.63 1041.47 1597.8 1041.69 1597.8H1048.41C1048.63 1597.8 1048.8 1597.63 1048.8 1597.41V1597.17C1048.8 1596.61 1048.52 1596.09 1048.06 1595.79L1046.72 1594.9C1046.35 1594.65 1046.13 1594.23 1046.13 1593.79C1046.13 1593.55 1046.19 1593.32 1046.31 1593.11C1046.63 1592.57 1046.79 1592.06 1046.79 1591.57V1591.05C1046.79 1590.08 1046.01 1589.3 1045.05 1589.3C1044.09 1589.3 1043.31 1590.08 1043.31 1591.05V1591.56C1043.31 1592.06 1043.47 1592.57 1043.79 1593.11C1043.91 1593.32 1043.97 1593.55 1043.97 1593.79C1043.97 1594.23 1043.75 1594.65 1043.38 1594.9L1042.04 1595.79C1041.58 1596.09 1041.3 1596.61 1041.3 1597.17Z" stroke="#222222" stroke-width="1.75" />
    <path d="M1051.1 1606.02V1606.26C1051.1 1606.48 1051.27 1606.65 1051.49 1606.65H1058.21C1058.43 1606.65 1058.6 1606.48 1058.6 1606.26V1606.02C1058.6 1605.46 1058.32 1604.94 1057.86 1604.64L1056.52 1603.75C1056.15 1603.5 1055.93 1603.08 1055.93 1602.64C1055.93 1602.4 1055.99 1602.17 1056.11 1601.96C1056.43 1601.42 1056.59 1600.91 1056.59 1600.42V1599.9C1056.59 1598.93 1055.81 1598.15 1054.85 1598.15C1053.89 1598.15 1053.11 1598.93 1053.11 1599.9V1600.41C1053.11 1600.91 1053.27 1601.42 1053.59 1601.96C1053.71 1602.17 1053.77 1602.4 1053.77 1602.64C1053.77 1603.08 1053.55 1603.5 1053.18 1603.75L1051.84 1604.64C1051.38 1604.94 1051.1 1605.46 1051.1 1606.02Z" stroke="#222222" stroke-width="1.75" />
    <path d="M1048 1606.5H1043.5C1042.4 1606.5 1041.5 1605.6 1041.5 1604.5V1601" stroke="#222222" stroke-width="2" stroke-linecap="round" stroke-linejoin="round" />
    <path d="M1050 1589.5H1056.5C1057.6 1589.5 1058.5 1590.4 1058.5 1591.5V1595" stroke="#222222" stroke-width="2" stroke-linecap="round" stroke-linejoin="round" />
  </g>
</svg>