<?xml version="1.0" encoding="UTF-8"?>
<svg xmlns="http://www.w3.org/2000/svg" width="24" height="24" viewBox="0 0 120 120" fill="none">
  <g transform="translate(-210, -1410)">
    <path d="M268.5 1473.5H265C263.895 1473.5 263 1472.6 263 1471.5V1458.5C263 1457.4 263.895 1456.5 265 1456.5H272.073C272.661 1456.5 273.219 1456.76 273.599 1457.21L276.526 1460.66C276.832 1461.02 277 1461.48 277 1461.96V1463.45" stroke="#222222" stroke-width="2" stroke-linecap="round" stroke-linejoin="round" />
    <path d="M272 1456.5V1461C272 1461.55 272.448 1462 273 1462H277" stroke="#222222" stroke-width="1.75" stroke-linecap="round" stroke-linejoin="round" />
    <path d="M275.333 1473.67C277.174 1473.67 278.667 1472.17 278.667 1470.33C278.667 1468.49 277.174 1467 275.333 1467C273.492 1467 272 1468.49 272 1470.33C272 1472.17 273.492 1473.67 275.333 1473.67Z" stroke="#222222" stroke-width="1.75" stroke-miterlimit="10" />
    <path d="M278.396 1472.16L277.778 1471.54L276.54 1472.78L277.159 1473.4L277.778 1472.78L278.396 1472.16ZM279.381 1475.62C279.723 1475.96 280.277 1475.96 280.619 1475.62C280.96 1475.28 280.96 1474.72 280.619 1474.38L280 1475L279.381 1475.62ZM277.778 1472.78L277.159 1473.4L279.381 1475.62L280 1475L280.619 1474.38L278.396 1472.16L277.778 1472.78Z" fill="#222222" />
  </g>
</svg>