<?xml version="1.0" encoding="UTF-8"?>
<svg xmlns="http://www.w3.org/2000/svg" width="24" height="24" viewBox="0 0 120 120" fill="none">
  <g transform="translate(-210, -740)">
    <path d="M274.062 806.811C274.062 807.192 273.754 807.5 273.374 807.5H262.256H261.439C261.058 807.5 260.75 807.192 260.75 806.811V806.395C260.75 805.406 261.241 804.49 262.061 803.946L264.439 802.375C265.098 801.942 265.491 801.209 265.491 800.42C265.491 799.999 265.377 799.588 265.165 799.228C264.595 798.262 264.316 797.366 264.316 796.497V795.589C264.316 793.885 265.7 792.5 267.403 792.5C268.454 792.5 269.383 793.027 269.941 793.831" stroke="#222222" stroke-width="2" />
    <path d="M265.94 806.395V806.811C265.94 807.192 266.248 807.5 266.629 807.5H278.564C278.944 807.5 279.252 807.192 279.252 806.811V806.395C279.252 805.406 278.761 804.49 277.936 803.946L275.558 802.375C274.901 801.942 274.506 801.209 274.506 800.42C274.506 800.001 274.619 799.588 274.831 799.231C275.404 798.262 275.68 797.369 275.68 796.499V795.589C275.68 793.885 274.297 792.5 272.593 792.5C270.89 792.5 269.506 793.885 269.506 795.589V796.497C269.506 797.366 269.785 798.262 270.355 799.228C270.567 799.588 270.681 799.999 270.681 800.42C270.681 801.209 270.288 801.942 269.628 802.375L267.251 803.946C266.431 804.49 265.94 805.406 265.94 806.395Z" stroke="#222222" stroke-width="2" />
  </g>
</svg>