<?xml version="1.0" encoding="UTF-8"?>
<svg xmlns="http://www.w3.org/2000/svg" width="24" height="24" viewBox="0 0 120 120" fill="none">
  <g transform="translate(-80, -740)">
    <path d="M133 806.821V807.265C133 807.671 133.324 808 133.724 808H146.276C146.676 808 147 807.671 147 807.265V806.821C147 805.766 146.483 804.789 145.615 804.209L143.115 802.533C142.424 802.071 142.008 801.289 142.008 800.448C142.008 800.002 142.128 799.561 142.351 799.179C142.953 798.146 143.243 797.194 143.243 796.266V795.295C143.243 793.477 141.788 792 139.997 792C138.206 792 136.751 793.477 136.751 795.295V796.263C136.751 797.191 137.044 798.146 137.643 799.176C137.866 799.561 137.986 799.998 137.986 800.448C137.986 801.289 137.573 802.071 136.879 802.533L134.379 804.209C133.517 804.789 133 805.766 133 806.821Z" stroke="#222222" stroke-width="2" />
  </g>
</svg>