<?xml version="1.0" encoding="UTF-8"?>
<svg xmlns="http://www.w3.org/2000/svg" width="24" height="24" viewBox="0 0 120 120" fill="none">
  <g transform="translate(-210, -1010)">
    <path d="M277.516 1067.2C278.135 1067.2 278.616 1067.74 278.451 1068.34C277.427 1072.05 274.032 1074.77 269.999 1074.77C266.708 1074.77 263.84 1072.96 262.34 1070.27C262.084 1069.82 262.295 1069.25 262.763 1069.02C263.281 1068.76 263.904 1069 264.203 1069.5C265.389 1071.46 267.541 1072.77 269.999 1072.77C273.032 1072.77 275.598 1070.77 276.458 1068.03C276.606 1067.55 277.022 1067.2 277.516 1067.2ZM269.999 1057.23C273.29 1057.23 276.157 1059.04 277.657 1061.72C277.913 1062.18 277.703 1062.74 277.233 1062.98C276.716 1063.24 276.093 1063 275.793 1062.5C274.608 1060.54 272.457 1059.23 269.999 1059.23C266.966 1059.23 264.4 1061.23 263.539 1063.97C263.391 1064.45 262.976 1064.8 262.482 1064.8C261.863 1064.8 261.383 1064.26 261.548 1063.66C262.572 1059.95 265.967 1057.23 269.999 1057.23Z" fill="#222222" />
    <path d="M274.724 1063.12L277.611 1063.89L278.385 1061.01" stroke="#222222" stroke-width="2" stroke-linecap="round" stroke-linejoin="round" />
    <path d="M261.575 1071.01L262.348 1068.12L265.235 1068.9" stroke="#222222" stroke-width="2" stroke-linecap="round" stroke-linejoin="round" />
  </g>
</svg>