<?xml version="1.0" encoding="UTF-8"?>
<svg xmlns="http://www.w3.org/2000/svg" width="24" height="24" viewBox="0 0 120 120" fill="none">
  <g transform="translate(-600, -740)">
    <path d="M658.875 805.75C662.672 805.75 665.75 802.672 665.75 798.875C665.75 795.078 662.672 792 658.875 792C655.078 792 652 795.078 652 798.875C652 802.672 655.078 805.75 658.875 805.75Z" stroke="#222222" stroke-width="2" stroke-miterlimit="10" />
    <path d="M664.707 803.293L664 802.586L662.585 804L663.292 804.707L664 804L664.707 803.293ZM667.292 808.707C667.683 809.098 668.316 809.098 668.707 808.707C669.097 808.317 669.097 807.683 668.707 807.293L668 808L667.292 808.707ZM664 804L663.292 804.707L667.292 808.707L668 808L668.707 807.293L664.707 803.293L664 804Z" fill="#222222" />
  </g>
</svg>