<?xml version="1.0" encoding="UTF-8"?>
<svg xmlns="http://www.w3.org/2000/svg" width="24" height="24" viewBox="0 0 120 120" fill="none">
  <g transform="translate(-730, -1540)">
    <path d="M795.333 1606.67C797.174 1606.67 798.667 1605.17 798.667 1603.33C798.667 1601.49 797.174 1600 795.333 1600C793.492 1600 792 1601.49 792 1603.33C792 1605.17 793.492 1606.67 795.333 1606.67Z" stroke="#222222" stroke-width="1.75" stroke-miterlimit="10" />
    <path d="M798.397 1605.16L797.778 1604.54L796.54 1605.78L797.159 1606.4L797.778 1605.78L798.397 1605.16ZM799.381 1608.62C799.723 1608.96 800.277 1608.96 800.619 1608.62C800.961 1608.28 800.961 1607.72 800.619 1607.38L800 1608L799.381 1608.62ZM797.778 1605.78L797.159 1606.4L799.381 1608.62L800 1608L800.619 1607.38L798.397 1605.16L797.778 1605.78Z" fill="#222222" />
    <path d="M792.384 1597.18C792.995 1596.15 793.289 1595.19 793.289 1594.27V1593.29C793.289 1591.48 791.814 1590 789.997 1590C788.18 1590 786.704 1591.48 786.704 1593.29V1594.26C786.704 1595.19 787.002 1596.15 787.609 1597.18C787.836 1597.56 787.957 1598 787.957 1598.45C787.957 1599.29 787.538 1600.07 786.834 1600.53L784.298 1602.21C783.424 1602.79 782.9 1603.77 782.9 1604.82V1605.26C782.9 1605.67 783.229 1606 783.635 1606H788.695" stroke="#222222" stroke-width="2" stroke-linecap="round" />
  </g>
</svg>