<?xml version="1.0" encoding="UTF-8"?>
<svg xmlns="http://www.w3.org/2000/svg" width="24" height="24" viewBox="0 0 120 120" fill="none">
  <g transform="translate(-340, -740)">
    <path d="M402.481 793.459L403.463 793.27L403.463 793.27L402.481 793.459ZM402.657 794.373L401.675 794.562C401.735 794.875 401.941 795.141 402.23 795.277L402.657 794.373ZM403.542 794.886L402.972 795.707C403.234 795.889 403.567 795.935 403.869 795.831L403.542 794.886ZM404.424 794.581L404.75 795.526L404.751 795.526L404.424 794.581ZM406.571 795.382L405.705 795.882L405.705 795.882L406.571 795.382ZM407.285 796.618L408.151 796.118L408.151 796.118L407.285 796.618ZM406.905 798.879L407.56 799.635L407.56 799.635L406.905 798.879ZM406.199 799.49L405.545 798.734C405.304 798.943 405.177 799.254 405.202 799.571L406.199 799.49ZM406.223 800H407.223V800H406.223ZM406.199 800.509L405.202 800.428C405.177 800.745 405.304 801.056 405.544 801.264L406.199 800.509ZM406.905 801.121L406.25 801.877L406.25 801.877L406.905 801.121ZM407.285 803.382L408.151 803.882L408.151 803.882L407.285 803.382ZM406.571 804.618L405.705 804.118L405.705 804.118L406.571 804.618ZM404.424 805.419L404.096 806.364L404.097 806.364L404.424 805.419ZM403.542 805.113L403.869 804.168C403.568 804.064 403.234 804.11 402.972 804.292L403.542 805.113ZM402.657 805.626L402.23 804.722C401.941 804.858 401.735 805.124 401.675 805.437L402.657 805.626ZM402.481 806.541L403.463 806.73L403.463 806.73L402.481 806.541ZM397.519 806.541L398.5 806.352L398.5 806.351L397.519 806.541ZM397.342 805.626L398.324 805.436C398.263 805.124 398.057 804.858 397.77 804.722L397.342 805.626ZM396.457 805.113L397.027 804.292C396.765 804.11 396.431 804.064 396.129 804.169L396.457 805.113ZM395.576 805.419L395.903 806.364L395.904 806.364L395.576 805.419ZM393.429 804.618L394.295 804.118L394.295 804.118L393.429 804.618ZM392.715 803.382L391.849 803.882L391.849 803.882L392.715 803.382ZM393.095 801.121L393.75 801.877L393.75 801.876L393.095 801.121ZM393.8 800.509L394.455 801.264C394.696 801.055 394.822 800.745 394.797 800.428L393.8 800.509ZM393.777 800H392.777V800H393.777ZM393.8 799.49L394.797 799.571C394.822 799.254 394.695 798.943 394.455 798.735L393.8 799.49ZM393.095 798.879L393.75 798.123L393.75 798.123L393.095 798.879ZM392.715 796.618L391.849 796.118L391.849 796.118L392.715 796.618ZM393.429 795.382L394.295 795.882L394.295 795.882L393.429 795.382ZM395.576 794.581L395.249 795.526L395.249 795.526L395.576 794.581ZM396.457 794.886L396.13 795.831C396.432 795.935 396.765 795.889 397.027 795.707L396.457 794.886ZM397.342 794.373L397.77 795.277C398.057 795.141 398.263 794.876 398.324 794.563L397.342 794.373ZM397.519 793.459L398.5 793.649L398.5 793.648L397.519 793.459ZM400.714 792V793C401.097 793 401.427 793.272 401.5 793.648L402.481 793.459L403.463 793.27C403.209 791.952 402.056 791 400.714 791V792ZM402.481 793.459L401.499 793.648L401.675 794.562L402.657 794.373L403.639 794.184L403.463 793.27L402.481 793.459ZM402.657 794.373L402.23 795.277C402.488 795.399 402.736 795.544 402.972 795.707L403.542 794.886L404.112 794.064C403.789 793.84 403.447 793.64 403.085 793.469L402.657 794.373ZM403.542 794.886L403.869 795.831L404.75 795.526L404.424 794.581L404.097 793.636L403.215 793.941L403.542 794.886ZM404.424 794.581L404.751 795.526C405.113 795.401 405.514 795.55 405.705 795.882L406.571 795.382L407.437 794.882C406.766 793.719 405.365 793.197 404.097 793.636L404.424 794.581ZM406.571 795.382L405.705 795.882L406.419 797.118L407.285 796.618L408.151 796.118L407.437 794.882L406.571 795.382ZM407.285 796.618L406.419 797.118C406.611 797.45 406.54 797.872 406.25 798.123L406.905 798.879L407.56 799.635C408.574 798.756 408.822 797.28 408.151 796.118L407.285 796.618ZM406.905 798.879L406.251 798.123L405.545 798.734L406.199 799.49L406.854 800.246L407.56 799.635L406.905 798.879ZM406.199 799.49L405.202 799.571C405.215 799.725 405.223 799.865 405.223 800H406.223H407.223C407.223 799.791 407.211 799.592 407.196 799.409L406.199 799.49ZM406.223 800H405.223C405.223 800.134 405.215 800.274 405.202 800.428L406.199 800.509L407.196 800.589C407.211 800.407 407.223 800.209 407.223 800H406.223ZM406.199 800.509L405.544 801.264L406.25 801.877L406.905 801.121L407.56 800.366L406.854 799.753L406.199 800.509ZM406.905 801.121L406.25 801.877C406.54 802.128 406.611 802.55 406.419 802.882L407.285 803.382L408.151 803.882C408.822 802.72 408.574 801.244 407.56 800.365L406.905 801.121ZM407.285 803.382L406.419 802.882L405.705 804.118L406.571 804.618L407.437 805.118L408.151 803.882L407.285 803.382ZM406.571 804.618L405.705 804.118C405.514 804.45 405.113 804.599 404.751 804.474L404.424 805.419L404.097 806.364C405.365 806.803 406.766 806.281 407.437 805.118L406.571 804.618ZM404.424 805.419L404.751 804.474L403.869 804.168L403.542 805.113L403.214 806.058L404.096 806.364L404.424 805.419ZM403.542 805.113L402.972 804.292C402.736 804.455 402.488 804.6 402.23 804.722L402.657 805.626L403.085 806.53C403.446 806.359 403.789 806.159 404.112 805.935L403.542 805.113ZM402.657 805.626L401.675 805.437L401.499 806.352L402.481 806.541L403.463 806.73L403.639 805.815L402.657 805.626ZM402.481 806.541L401.5 806.352C401.427 806.728 401.097 807 400.714 807V808V809C402.056 809 403.209 808.048 403.463 806.73L402.481 806.541ZM400.714 808V807H399.286V808V809H400.714V808ZM399.286 808V807C398.903 807 398.573 806.728 398.5 806.352L397.519 806.541L396.537 806.73C396.791 808.048 397.944 809 399.286 809V808ZM397.519 806.541L398.5 806.351L398.324 805.436L397.342 805.626L396.36 805.816L396.537 806.731L397.519 806.541ZM397.342 805.626L397.77 804.722C397.511 804.6 397.263 804.455 397.027 804.292L396.457 805.113L395.887 805.935C396.21 806.159 396.553 806.359 396.914 806.53L397.342 805.626ZM396.457 805.113L396.129 804.169L395.248 804.474L395.576 805.419L395.904 806.364L396.785 806.058L396.457 805.113ZM395.576 805.419L395.249 804.474C394.887 804.599 394.486 804.45 394.295 804.118L393.429 804.618L392.563 805.118C393.234 806.281 394.635 806.803 395.903 806.364L395.576 805.419ZM393.429 804.618L394.295 804.118L393.581 802.882L392.715 803.382L391.849 803.882L392.563 805.118L393.429 804.618ZM392.715 803.382L393.581 802.882C393.389 802.55 393.46 802.128 393.75 801.877L393.095 801.121L392.44 800.365C391.426 801.244 391.178 802.72 391.849 803.882L392.715 803.382ZM393.095 801.121L393.75 801.876L394.455 801.264L393.8 800.509L393.144 799.754L392.439 800.366L393.095 801.121ZM393.8 800.509L394.797 800.428C394.784 800.279 394.777 800.137 394.777 800H393.777H392.777C392.777 800.205 392.788 800.403 392.803 800.589L393.8 800.509ZM393.777 800H394.777C394.777 799.862 394.784 799.72 394.797 799.571L393.8 799.49L392.803 799.409C392.788 799.597 392.777 799.794 392.777 800H393.777ZM393.8 799.49L394.455 798.735L393.75 798.123L393.095 798.879L392.44 799.634L393.145 800.246L393.8 799.49ZM393.095 798.879L393.75 798.123C393.46 797.872 393.389 797.45 393.581 797.118L392.715 796.618L391.849 796.118C391.178 797.28 391.426 798.756 392.44 799.635L393.095 798.879ZM392.715 796.618L393.581 797.118L394.295 795.882L393.429 795.382L392.563 794.882L391.849 796.118L392.715 796.618ZM393.429 795.382L394.295 795.882C394.486 795.55 394.887 795.401 395.249 795.526L395.576 794.581L395.903 793.636C394.635 793.197 393.234 793.719 392.563 794.882L393.429 795.382ZM395.576 794.581L395.249 795.526L396.13 795.831L396.457 794.886L396.784 793.941L395.903 793.636L395.576 794.581ZM396.457 794.886L397.027 795.707C397.263 795.544 397.511 795.399 397.77 795.277L397.342 794.373L396.914 793.469C396.553 793.64 396.21 793.84 395.887 794.064L396.457 794.886ZM397.342 794.373L398.324 794.563L398.5 793.649L397.519 793.459L396.537 793.269L396.36 794.183L397.342 794.373ZM397.519 793.459L398.5 793.648C398.573 793.272 398.903 793 399.286 793V792V791C397.944 791 396.791 791.952 396.537 793.27L397.519 793.459ZM399.286 792V793H400.714V792V791H399.286V792Z" fill="#222222" />
    <circle cx="400" cy="800" r="2.5" stroke="#222222" stroke-width="2" stroke-linecap="round" stroke-linejoin="round" />
  </g>
</svg>