<?xml version="1.0" encoding="UTF-8"?>
<svg xmlns="http://www.w3.org/2000/svg" width="24" height="24" viewBox="0 0 120 120" fill="none">
  <g transform="translate(-860, -870)">
    <path d="M926.539 923.561C927.346 922.754 928.654 922.754 929.461 923.561C930.267 924.367 930.267 925.675 929.461 926.482L920.66 935.282C920.651 935.291 920.64 935.296 920.628 935.296L917.761 935.305C917.736 935.306 917.716 935.285 917.716 935.26L917.725 932.393C917.725 932.381 917.73 932.37 917.739 932.361L926.539 923.561Z" stroke="#222222" stroke-width="2" />
    <path d="M918 927H913C911.895 927 911 927.895 911 929V940C911 941.105 911.895 942 913 942H924C925.105 942 926 941.105 926 940V935" stroke="#222222" stroke-width="2" stroke-linecap="round" stroke-linejoin="round" />
  </g>
</svg>