<?xml version="1.0" encoding="UTF-8"?>
<svg xmlns="http://www.w3.org/2000/svg" width="24" height="24" viewBox="0 0 120 120" fill="none">
  <g transform="translate(-470, -2400)">
    <path fill-rule="evenodd" clip-rule="evenodd" d="M523 2457C521.895 2457 521 2457.9 521 2459V2468C521 2469.1 521.895 2470 523 2470H537C538.105 2470 539 2469.1 539 2468V2459C539 2457.9 538.105 2457 537 2457H534.5L533.276 2454.55C533.107 2454.21 532.761 2454 532.382 2454H527.618C527.239 2454 526.893 2454.21 526.724 2454.55L525.5 2457H523ZM525.5 2463C525.5 2460.51 527.515 2458.5 530 2458.5C532.485 2458.5 534.5 2460.51 534.5 2463C534.5 2465.49 532.485 2467.5 530 2467.5C527.515 2467.5 525.5 2465.49 525.5 2463Z" fill="#222222" />
    <path d="M534.5 2457L533.606 2457.45C533.775 2457.79 534.121 2458 534.5 2458V2457ZM533.276 2454.55L532.382 2455V2455L533.276 2454.55ZM526.724 2454.55L525.829 2454.11V2454.11L526.724 2454.55ZM525.5 2457V2458C525.879 2458 526.225 2457.79 526.394 2457.45L525.5 2457ZM521 2459H522C522 2458.45 522.448 2458 523 2458V2457V2456C521.343 2456 520 2457.34 520 2459H521ZM521 2468H522V2459H521H520V2468H521ZM523 2470V2469C522.448 2469 522 2468.55 522 2468H521H520C520 2469.66 521.343 2471 523 2471V2470ZM537 2470V2469H523V2470V2471H537V2470ZM539 2468H538C538 2468.55 537.552 2469 537 2469V2470V2471C538.657 2471 540 2469.66 540 2468H539ZM539 2459H538V2468H539H540V2459H539ZM537 2457V2458C537.552 2458 538 2458.45 538 2459H539H540C540 2457.34 538.657 2456 537 2456V2457ZM534.5 2457V2458H537V2457V2456H534.5V2457ZM533.276 2454.55L532.382 2455L533.606 2457.45L534.5 2457L535.394 2456.55L534.171 2454.11L533.276 2454.55ZM532.382 2454V2455V2455L533.276 2454.55L534.171 2454.11C533.832 2453.43 533.14 2453 532.382 2453V2454ZM527.618 2454V2455H532.382V2454V2453H527.618V2454ZM526.724 2454.55L527.618 2455L527.618 2455V2454V2453C526.86 2453 526.168 2453.43 525.829 2454.11L526.724 2454.55ZM525.5 2457L526.394 2457.45L527.618 2455L526.724 2454.55L525.829 2454.11L524.606 2456.55L525.5 2457ZM523 2457V2458H525.5V2457V2456H523V2457ZM530 2458.5V2457.5C526.962 2457.5 524.5 2459.96 524.5 2463H525.5H526.5C526.5 2461.07 528.067 2459.5 530 2459.5V2458.5ZM534.5 2463H535.5C535.5 2459.96 533.038 2457.5 530 2457.5V2458.5V2459.5C531.933 2459.5 533.5 2461.07 533.5 2463H534.5ZM530 2467.5V2468.5C533.038 2468.5 535.5 2466.04 535.5 2463H534.5H533.5C533.5 2464.93 531.933 2466.5 530 2466.5V2467.5ZM525.5 2463H524.5C524.5 2466.04 526.962 2468.5 530 2468.5V2467.5V2466.5C528.067 2466.5 526.5 2464.93 526.5 2463H525.5Z" fill="#222222" />
  </g>
</svg>