<?xml version="1.0" encoding="UTF-8"?>
<svg xmlns="http://www.w3.org/2000/svg" width="24" height="24" viewBox="0 0 120 120" fill="none">
  <g transform="translate(-340, -2530)">
    <path d="M396.349 2594.53C396.453 2594.64 396.504 2594.78 396.501 2594.93C396.501 2594.95 396.501 2594.98 396.501 2595C396.501 2596.93 398.068 2598.5 400.001 2598.5C400.024 2598.5 400.047 2598.5 400.069 2598.5C400.217 2598.5 400.362 2598.55 400.466 2598.65L402.262 2600.45C402.538 2600.72 402.404 2601.19 402.02 2601.25C397.501 2602.01 392.615 2600.21 389.845 2595.84C389.523 2595.33 389.523 2594.67 389.845 2594.17L390.071 2593.82C390.756 2592.81 391.557 2591.95 392.441 2591.24C392.634 2591.08 392.914 2591.1 393.09 2591.28L396.349 2594.53ZM394.529 2590.59C394.295 2590.36 394.349 2589.97 394.646 2589.82C399.878 2587.23 406.683 2588.68 410.156 2594.17C410.478 2594.67 410.478 2595.33 410.156 2595.84C408.788 2597.99 406.903 2599.53 404.801 2600.43C404.618 2600.51 404.405 2600.47 404.264 2600.33L402.324 2598.39C402.098 2598.16 402.141 2597.79 402.376 2597.57C403.067 2596.93 403.501 2596.02 403.501 2595C403.501 2593.07 401.933 2591.5 400.001 2591.5C398.985 2591.5 398.07 2591.93 397.431 2592.62C397.214 2592.86 396.838 2592.9 396.612 2592.68L394.529 2590.59ZM400.001 2593.5C400.829 2593.5 401.501 2594.17 401.501 2595C401.501 2595.59 401.155 2596.11 400.654 2596.35C400.494 2596.43 400.307 2596.37 400.181 2596.25L398.755 2594.82C398.629 2594.69 398.574 2594.51 398.652 2594.35C398.894 2593.85 399.407 2593.5 400.001 2593.5Z" fill="#222222" />
    <path d="M391.5 2586.5L408.5 2603.5" stroke="#222222" stroke-width="1.5" stroke-linecap="round" stroke-linejoin="round" />
  </g>
</svg>