<?xml version="1.0" encoding="UTF-8"?>
<svg xmlns="http://www.w3.org/2000/svg" width="24" height="24" viewBox="0 0 120 120" fill="none">
  <g transform="translate(-210, -2530)">
    <path d="M260.071 2593.82C264.903 2586.72 275.51 2586.83 280.156 2594.17C280.478 2594.68 280.478 2595.33 280.156 2595.84C275.436 2603.29 264.565 2603.29 259.845 2595.84C259.522 2595.33 259.522 2594.68 259.845 2594.17L260.071 2593.82ZM270 2591.5C268.067 2591.5 266.5 2593.07 266.5 2595C266.5 2596.93 268.067 2598.5 270 2598.5C271.933 2598.5 273.5 2596.93 273.5 2595C273.5 2593.07 271.933 2591.5 270 2591.5ZM270 2593.5C270.829 2593.5 271.5 2594.17 271.5 2595C271.5 2595.83 270.828 2596.5 270 2596.5C269.172 2596.5 268.5 2595.83 268.5 2595C268.5 2594.17 269.172 2593.5 270 2593.5Z" fill="#222222" />
  </g>
</svg>