<?xml version="1.0" encoding="UTF-8"?>
<svg xmlns="http://www.w3.org/2000/svg" width="24" height="24" viewBox="0 0 120 120" fill="none">
  <g transform="translate(-730, -2400)">
    <path fill-rule="evenodd" clip-rule="evenodd" d="M780.97 2452.97C781.263 2452.68 781.737 2452.68 782.03 2452.97L799.03 2469.97C799.323 2470.26 799.323 2470.74 799.03 2471.03C798.737 2471.32 798.263 2471.32 797.97 2471.03L780.97 2454.03C780.677 2453.74 780.677 2453.26 780.97 2452.97Z" fill="#222222" />
    <path d="M792.697 2453.97C794.291 2452.75 796.6 2453.88 796.6 2455.89V2468.11C796.6 2468.57 796.478 2468.98 796.272 2469.34L784.581 2457.64C785.059 2457.24 785.676 2457 786.35 2457H788.76L792.697 2453.97Z" fill="#222222" />
    <path d="M784.31 2459.5C784.045 2459.23 783.604 2459.35 783.6 2459.72C783.6 2459.73 783.6 2459.74 783.6 2459.75V2464.25C783.6 2465.77 784.831 2467 786.35 2467H788.76L792.697 2470.03C793.235 2470.44 793.855 2470.59 794.439 2470.52C794.789 2470.48 794.875 2470.06 794.626 2469.81L784.31 2459.5Z" fill="#222222" />
  </g>
</svg>