<?xml version="1.0" encoding="UTF-8"?>
<svg xmlns="http://www.w3.org/2000/svg" width="24" height="24" viewBox="0 0 120 120" fill="none">
  <g transform="translate(-600, -2400)">
    <path d="M654.5 2458H651.75C650.784 2458 650 2458.78 650 2459.75V2464.25C650 2465.22 650.784 2466 651.75 2466H654.5V2458Z" fill="#222222" stroke="#222222" stroke-width="2" />
    <path d="M658.706 2454.76L654.5 2458V2466L658.706 2469.24C659.643 2469.96 661 2469.29 661 2468.11V2455.89C661 2454.71 659.643 2454.04 658.706 2454.76Z" fill="#222222" stroke="#222222" stroke-width="2" stroke-linecap="round" />
    <path fill-rule="evenodd" clip-rule="evenodd" d="M663.551 2459.18C663.726 2458.66 664.292 2458.38 664.816 2458.55C665.519 2458.79 667.252 2459.8 667.252 2462C667.252 2463.06 666.812 2463.88 666.302 2464.44C665.811 2464.98 665.228 2465.31 664.816 2465.45C664.292 2465.62 663.726 2465.34 663.551 2464.82C663.377 2464.29 663.66 2463.73 664.184 2463.55C664.272 2463.52 664.565 2463.38 664.824 2463.09C665.065 2462.83 665.252 2462.47 665.252 2462C665.252 2461.03 664.482 2460.55 664.184 2460.45C663.66 2460.27 663.377 2459.71 663.551 2459.18Z" fill="#222222" />
    <path fill-rule="evenodd" clip-rule="evenodd" d="M665.106 2455.55C665.353 2455.06 665.953 2454.86 666.447 2455.11C667.515 2455.64 671 2457.81 671 2462C671 2466.28 667.507 2468.36 666.447 2468.89C665.953 2469.14 665.353 2468.94 665.106 2468.45C664.859 2467.95 665.059 2467.35 665.553 2467.11C666.493 2466.64 669 2465.05 669 2462C669 2459.02 666.485 2457.36 665.553 2456.89C665.059 2456.65 664.859 2456.05 665.106 2455.55Z" fill="#222222" />
  </g>
</svg>