<?xml version="1.0" encoding="UTF-8"?>
<svg xmlns="http://www.w3.org/2000/svg" width="24" height="24" viewBox="0 0 120 120" fill="none">
  <g transform="translate(-80, -2400)">
    <path d="M132 2455C130.895 2455 130 2455.9 130 2457V2467C130 2468.1 130.895 2469 132 2469H144C145.105 2469 146 2468.1 146 2467V2465.2C146 2465.01 146.205 2464.89 146.371 2464.98L148.514 2466.17C149.181 2466.54 150 2466.06 150 2465.3V2458.7C150 2457.94 149.181 2457.46 148.514 2457.83L146.371 2459.02C146.205 2459.11 146 2458.99 146 2458.8V2457C146 2455.9 145.105 2455 144 2455H132Z" fill="#222222" />
  </g>
</svg>