<?xml version="1.0" encoding="UTF-8"?>
<svg xmlns="http://www.w3.org/2000/svg" width="24" height="24" viewBox="0 0 120 120" fill="none">
  <g transform="translate(-210, -2400)">
    <path fill-rule="evenodd" clip-rule="evenodd" d="M260.97 2452.97C261.263 2452.68 261.737 2452.68 262.03 2452.97L279.03 2469.97C279.323 2470.26 279.323 2470.74 279.03 2471.03C278.737 2471.32 278.263 2471.32 277.97 2471.03L260.97 2454.03C260.677 2453.74 260.677 2453.26 260.97 2452.97Z" fill="#222222" />
    <path d="M260.874 2456.06C260.669 2455.85 260.328 2455.86 260.201 2456.12C260.072 2456.39 260 2456.69 260 2457V2467C260 2468.1 260.895 2469 262 2469H272.608C273.053 2469 273.276 2468.46 272.961 2468.15L260.874 2456.06Z" fill="#222222" />
    <path d="M275.382 2468.45C275.763 2468.08 276 2467.57 276 2467V2465.2C276 2465.01 276.205 2464.89 276.371 2464.98L278.514 2466.17C279.181 2466.54 280 2466.06 280 2465.3V2458.7C280 2457.94 279.181 2457.46 278.514 2457.83L276.371 2459.02C276.205 2459.11 276 2458.99 276 2458.8V2457C276 2455.9 275.105 2455 274 2455H262C261.979 2455 261.958 2455 261.937 2455L275.382 2468.45Z" fill="#222222" />
  </g>
</svg>