<?xml version="1.0" encoding="UTF-8"?>
<svg xmlns="http://www.w3.org/2000/svg" width="24" height="24" viewBox="0 0 120 120" fill="none">
  <g transform="translate(-990, -2400)">
    <path fill-rule="evenodd" clip-rule="evenodd" d="M1040.97 2452.97C1041.26 2452.68 1041.74 2452.68 1042.03 2452.97L1059.03 2469.97C1059.32 2470.26 1059.32 2470.74 1059.03 2471.03C1058.74 2471.32 1058.26 2471.32 1057.97 2471.03L1040.97 2454.03C1040.68 2453.74 1040.68 2453.26 1040.97 2452.97Z" fill="#222222" />
    <path d="M1045.5 2457C1045.5 2454.51 1047.51 2452.5 1050 2452.5C1052.49 2452.5 1054.5 2454.51 1054.5 2457V2461C1054.5 2462.78 1053.47 2464.31 1051.98 2465.04L1045.5 2458.56V2457Z" fill="#222222" />
    <path d="M1045.72 2460.91C1045.64 2460.83 1045.5 2460.88 1045.5 2461C1045.5 2463.49 1047.51 2465.5 1050 2465.5C1050.12 2465.5 1050.17 2465.36 1050.09 2465.27L1045.72 2460.91Z" fill="#222222" />
    <path d="M1051.81 2467C1051.69 2466.87 1051.5 2466.82 1051.33 2466.86C1050.9 2466.95 1050.46 2467 1050 2467C1046.64 2467 1044 2464.42 1044 2461.39V2460C1044 2459.45 1043.55 2459 1043 2459C1042.45 2459 1042 2459.45 1042 2460V2461.39C1042 2465.31 1045.11 2468.47 1049 2468.94V2470.5C1049 2471.05 1049.45 2471.5 1050 2471.5C1050.55 2471.5 1051 2471.05 1051 2470.5V2468.94C1051.51 2468.88 1052 2468.77 1052.48 2468.62C1052.82 2468.52 1052.91 2468.09 1052.65 2467.84L1051.81 2467Z" fill="#222222" />
    <path d="M1054.57 2467.63C1056.63 2466.26 1058 2463.99 1058 2461.39V2460C1058 2459.45 1057.55 2459 1057 2459C1056.45 2459 1056 2459.45 1056 2460V2461.39C1056 2463.39 1054.86 2465.18 1053.12 2466.18L1054.57 2467.63Z" fill="#222222" />
  </g>
</svg>