<?xml version="1.0" encoding="UTF-8"?>
<svg xmlns="http://www.w3.org/2000/svg" width="24" height="24" viewBox="0 0 120 120" fill="none">
  <g transform="translate(-600, -3240)">
    <path d="M660 3295C664.971 3295 669 3299.03 669 3304C669 3308.97 664.971 3313 660 3313C655.029 3313 651 3308.97 651 3304C651 3299.03 655.029 3295 660 3295ZM660 3298.5C659.448 3298.5 659 3298.95 659 3299.5V3304C659 3304.32 659.156 3304.63 659.419 3304.81L662.919 3307.31C663.368 3307.63 663.992 3307.53 664.313 3307.08C664.634 3306.63 664.53 3306.01 664.081 3305.69L661 3303.49V3299.5C661 3298.95 660.552 3298.5 660 3298.5Z" fill="#222222" />
  </g>
</svg>