<?xml version="1.0" encoding="UTF-8"?>
<svg xmlns="http://www.w3.org/2000/svg" width="24" height="24" viewBox="0 0 120 120" fill="none">
  <g transform="translate(-210, -3240)">
    <path d="M272.383 3309.57C272.54 3309.73 272.429 3310 272.206 3310H263.532C261.978 3310 261.018 3308.3 261.817 3306.97L262.964 3305.06C262.988 3305.02 263 3304.98 263 3304.93V3301.5C263 3301.25 263.011 3301.01 263.032 3300.77C263.051 3300.57 263.296 3300.49 263.441 3300.63L272.383 3309.57ZM270 3294C273.866 3294 277 3297.36 277 3301.5V3304.93C277 3304.98 277.012 3305.02 277.036 3305.06L278.183 3306.97C278.982 3308.3 278.022 3310 276.468 3310H275.035C274.969 3310 274.905 3309.97 274.858 3309.93L263.655 3298.72C263.584 3298.65 263.562 3298.55 263.6 3298.46C264.69 3295.83 267.146 3294 270 3294Z" fill="#222222" />
    <path d="M267.25 3311.2C267.712 3312.37 268.77 3313.19 270 3313.19C271.23 3313.19 272.287 3312.37 272.75 3311.2H267.25Z" fill="#222222" />
    <path d="M261.5 3295.5L278.5 3312.5" stroke="#222222" stroke-width="1.5" stroke-linecap="round" stroke-linejoin="round" />
  </g>
</svg>