<?xml version="1.0" encoding="UTF-8"?>
<svg xmlns="http://www.w3.org/2000/svg" width="24" height="24" viewBox="0 0 120 120" fill="none">
  <g transform="translate(-340, -3240)">
    <path d="M400 3294C400.153 3294 400.236 3294.17 400.153 3294.3C399.455 3295.36 399.05 3296.63 399.05 3298C399.05 3301.73 402.072 3304.75 405.8 3304.75C406.109 3304.75 406.414 3304.73 406.712 3304.69C406.862 3304.67 407 3304.78 407 3304.93C407 3304.98 407.012 3305.02 407.035 3305.06L408.183 3306.97C408.982 3308.3 408.022 3310 406.468 3310H393.532C391.978 3310 391.018 3308.3 391.817 3306.97L392.929 3305.12C392.975 3305.04 393 3304.95 393 3304.86V3301.5C393 3297.36 396.134 3294 400 3294Z" fill="#222222" />
    <path d="M397.25 3311.2C397.712 3312.37 398.77 3313.19 400 3313.19C401.23 3313.19 402.287 3312.37 402.75 3311.2H397.25Z" fill="#222222" />
    <path d="M406.268 3293C406.727 3293 407.127 3293.31 407.239 3293.76L407.458 3294.64C407.604 3294.71 407.745 3294.79 407.88 3294.88L408.753 3294.63C409.195 3294.51 409.666 3294.7 409.895 3295.09L410.364 3295.91C410.593 3296.3 410.523 3296.81 410.193 3297.12L409.541 3297.76C409.546 3297.84 409.549 3297.92 409.549 3298C409.549 3298.08 409.546 3298.16 409.541 3298.24L410.193 3298.88C410.523 3299.19 410.593 3299.7 410.364 3300.09L409.895 3300.91C409.666 3301.3 409.195 3301.49 408.753 3301.37L407.88 3301.12C407.745 3301.21 407.604 3301.29 407.458 3301.36L407.239 3302.24C407.127 3302.69 406.727 3303 406.268 3303H405.33C404.871 3303 404.471 3302.69 404.36 3302.24L404.139 3301.36C403.993 3301.29 403.851 3301.21 403.716 3301.12L402.844 3301.37C402.403 3301.49 401.933 3301.3 401.704 3300.91L401.234 3300.09C401.005 3299.7 401.075 3299.19 401.405 3298.88L402.057 3298.24C402.052 3298.16 402.049 3298.08 402.049 3298C402.049 3297.92 402.052 3297.84 402.057 3297.76L401.405 3297.12C401.075 3296.81 401.005 3296.3 401.234 3295.91L401.704 3295.09C401.933 3294.7 402.403 3294.51 402.844 3294.63L403.716 3294.88C403.851 3294.79 403.993 3294.71 404.139 3294.64L404.36 3293.76C404.471 3293.31 404.871 3293 405.33 3293H406.268ZM405.799 3296.29C404.855 3296.29 404.088 3297.06 404.088 3298C404.088 3298.94 404.855 3299.71 405.799 3299.71C406.744 3299.71 407.509 3298.94 407.509 3298C407.509 3297.06 406.744 3296.29 405.799 3296.29Z" fill="#222222" />
  </g>
</svg>