<?xml version="1.0" encoding="UTF-8"?>
<svg xmlns="http://www.w3.org/2000/svg" width="24" height="24" viewBox="0 0 120 120" fill="none">
  <g transform="translate(-470, -3240)">
    <path d="M534.975 3295.04C536.931 3294.32 539 3295.77 539 3297.86V3307.64C539 3309.73 536.931 3311.18 534.975 3310.46L528 3307.93V3297.57L534.975 3295.04ZM526 3307.5H524C522.343 3307.5 521 3306.16 521 3304.5V3301C521 3299.34 522.343 3298 524 3298H526V3307.5Z" fill="#222222" />
    <path d="M526.476 3309C526.531 3309 526.586 3309.01 526.638 3309.03L530.671 3310.49C530.868 3310.57 531 3310.75 531 3310.96V3311.5C531 3312.6 530.105 3313.5 529 3313.5H528C526.895 3313.5 526 3312.6 526 3311.5V3309.48C526 3309.21 526.213 3309 526.476 3309Z" fill="#222222" />
  </g>
</svg>