<?xml version="1.0" encoding="UTF-8"?>
<svg xmlns="http://www.w3.org/2000/svg" width="24" height="24" viewBox="0 0 120 120" fill="none">
  <g transform="translate(-730, -3240)">
    <circle cx="790" cy="3304" r="8" fill="#FD472B" />
    <path d="M786.614 3308.23C786.504 3308.23 786.414 3308.14 786.414 3308.03V3299.97C786.414 3299.86 786.504 3299.77 786.614 3299.77H787.856C787.922 3299.77 787.983 3299.8 788.021 3299.86L791.774 3305.26C791.779 3305.26 791.786 3305.27 791.793 3305.27C791.806 3305.27 791.816 3305.26 791.816 3305.24V3299.97C791.816 3299.86 791.906 3299.77 792.016 3299.77H793.38C793.491 3299.77 793.58 3299.86 793.58 3299.97V3308.03C793.58 3308.14 793.491 3308.23 793.38 3308.23H792.15C792.084 3308.23 792.023 3308.19 791.985 3308.14L788.22 3302.7C788.215 3302.69 788.208 3302.69 788.201 3302.69C788.188 3302.69 788.178 3302.7 788.178 3302.71V3308.03C788.178 3308.14 788.088 3308.23 787.978 3308.23H786.614Z" fill="white" />
  </g>
</svg>