<?xml version="1.0" encoding="UTF-8"?>
<svg xmlns="http://www.w3.org/2000/svg" width="24" height="24" viewBox="0 0 120 120" fill="none">
  <g transform="translate(-80, -1540)">
    <path d="M142 1604L150 1604" stroke="#222222" stroke-width="1.75" stroke-linecap="round" />
    <path d="M146 1600L146 1608" stroke="#222222" stroke-width="1.75" stroke-linecap="round" />
    <path d="M145 1588.5C146.657 1588.5 148 1589.84 148 1591.5V1597.13C148 1597.41 147.776 1597.63 147.5 1597.63H146.094C146.063 1597.63 146.031 1597.62 146 1597.62C144.688 1597.62 143.625 1598.69 143.625 1600V1601.12C143.625 1601.4 143.401 1601.62 143.125 1601.62H142C140.688 1601.62 139.625 1602.69 139.625 1604V1607C139.625 1607.28 139.401 1607.5 139.125 1607.5H135C133.343 1607.5 132 1606.16 132 1604.5V1591.5C132 1589.84 133.343 1588.5 135 1588.5H145ZM136.4 1595.97C135.917 1595.97 135.526 1596.37 135.525 1596.85C135.525 1597.33 135.917 1597.72 136.4 1597.72H140.9C141.383 1597.72 141.775 1597.33 141.775 1596.85C141.775 1596.37 141.383 1595.97 140.9 1595.97H136.4ZM136.4 1592.47C135.917 1592.47 135.526 1592.87 135.525 1593.35C135.525 1593.83 135.917 1594.22 136.4 1594.22H143.601C144.084 1594.22 144.476 1593.83 144.476 1593.35C144.475 1592.87 144.083 1592.47 143.601 1592.47H136.4Z" fill="#222222" />
  </g>
</svg>