<?xml version="1.0" encoding="UTF-8"?>
<svg xmlns="http://www.w3.org/2000/svg" width="24" height="24" viewBox="0 0 120 120" fill="none">
  <g transform="translate(-600, -1540)">
    <path d="M662.942 1589.5C664.875 1589.5 666.447 1591.07 666.447 1593V1594.03C666.447 1595.02 666.133 1596.03 665.483 1597.13C665.41 1597.25 665.346 1597.38 665.294 1597.51C665.235 1597.67 665.118 1597.79 664.972 1597.86C664.175 1598.24 663.625 1599.06 663.625 1600V1601.12C663.625 1601.4 663.402 1601.62 663.125 1601.62H662C660.689 1601.62 659.625 1602.69 659.625 1604V1606C659.625 1606.28 659.402 1606.5 659.125 1606.5H656.172C655.74 1606.5 655.39 1606.15 655.39 1605.72V1605.25C655.39 1604.13 655.948 1603.09 656.878 1602.47L659.577 1600.69C660.326 1600.2 660.771 1599.37 660.771 1598.48C660.771 1598 660.643 1597.53 660.402 1597.12C659.755 1596.03 659.438 1595.01 659.438 1594.03V1593C659.438 1591.07 661.009 1589.5 662.942 1589.5Z" fill="#222222" />
    <path d="M657.052 1589.5C657.543 1589.5 658.011 1589.6 658.436 1589.78C658.704 1589.9 658.763 1590.23 658.617 1590.49C658.185 1591.22 657.938 1592.08 657.938 1593V1594.03C657.938 1595.35 658.367 1596.63 659.11 1597.89C659.156 1597.96 659.19 1598.04 659.215 1598.13C659.232 1598.18 659.234 1598.24 659.23 1598.29C659.226 1598.35 659.224 1598.42 659.224 1598.48C659.224 1598.54 659.226 1598.6 659.231 1598.66C659.235 1598.72 659.233 1598.77 659.216 1598.83C659.138 1599.07 658.978 1599.29 658.755 1599.44L656.053 1601.22L656.05 1601.22C654.699 1602.12 653.891 1603.62 653.891 1605.25V1605.72C653.891 1605.75 653.891 1605.77 653.892 1605.8C653.905 1606.15 653.663 1606.5 653.316 1606.5H650.282C649.85 1606.5 649.5 1606.15 649.5 1605.72V1605.25C649.5 1604.13 650.058 1603.09 650.988 1602.47L653.687 1600.69C654.435 1600.2 654.881 1599.37 654.881 1598.48C654.881 1598 654.752 1597.53 654.512 1597.12C653.865 1596.03 653.548 1595.01 653.548 1594.03V1593C653.548 1591.07 655.119 1589.5 657.052 1589.5Z" fill="#222222" />
    <path d="M662 1604L670 1604" stroke="#222222" stroke-width="1.75" stroke-linecap="round" />
    <path d="M666 1600L666 1608" stroke="#222222" stroke-width="1.75" stroke-linecap="round" />
  </g>
</svg>