<?xml version="1.0" encoding="UTF-8"?>
<svg xmlns="http://www.w3.org/2000/svg" width="24" height="24" viewBox="0 0 120 120" fill="none">
  <g transform="translate(-210, -1540)">
    <path d="M268.063 1589C268.954 1589 269.798 1589.4 270.368 1590.08L271.669 1591.64C271.859 1591.87 272.14 1592 272.437 1592H276C277.657 1592 279 1593.34 279 1595V1597.13C279 1597.41 278.776 1597.63 278.5 1597.63H276.094C276.063 1597.63 276.031 1597.62 276 1597.62C274.688 1597.62 273.625 1598.69 273.625 1600V1601.12C273.625 1601.4 273.401 1601.62 273.125 1601.62H272C270.688 1601.62 269.625 1602.69 269.625 1604V1606.5C269.625 1606.78 269.401 1607 269.125 1607H264C262.343 1607 261 1605.66 261 1604V1592C261 1590.34 262.343 1589 264 1589H268.063Z" fill="#222222" />
    <path d="M272 1604L280 1604" stroke="#222222" stroke-width="1.75" stroke-linecap="round" />
    <path d="M276 1600L276 1608" stroke="#222222" stroke-width="1.75" stroke-linecap="round" />
  </g>
</svg>