<?xml version="1.0" encoding="UTF-8"?>
<svg xmlns="http://www.w3.org/2000/svg" width="24" height="24" viewBox="0 0 120 120" fill="none">
  <g transform="translate(-470, -1540)">
    <path d="M529.996 1589C532.043 1589 533.706 1590.66 533.706 1592.71V1593.8C533.706 1594.84 533.375 1595.91 532.687 1597.08C532.432 1597.51 532.295 1598 532.295 1598.5C532.295 1599.45 532.77 1600.33 533.56 1600.85C533.6 1600.88 533.625 1600.92 533.625 1600.97V1601.15C533.625 1601.41 533.412 1601.62 533.149 1601.62H532C530.688 1601.62 529.625 1602.69 529.625 1604V1606.5C529.625 1606.78 529.401 1607 529.125 1607H522.828C522.371 1607 522 1606.63 522 1606.17V1605.67C522 1604.49 522.59 1603.39 523.575 1602.73L526.434 1600.85C527.226 1600.33 527.698 1599.45 527.698 1598.5C527.698 1598 527.562 1597.51 527.307 1597.07C526.622 1595.91 526.286 1594.84 526.286 1593.8V1592.71C526.286 1590.66 527.949 1589 529.996 1589Z" fill="#222222" />
    <path d="M532 1604L540 1604" stroke="#222222" stroke-width="1.75" stroke-linecap="round" />
    <path d="M536 1600L536 1608" stroke="#222222" stroke-width="1.75" stroke-linecap="round" />
  </g>
</svg>