<?xml version="1.0" encoding="UTF-8"?>
<svg xmlns="http://www.w3.org/2000/svg" width="24" height="24" viewBox="0 0 120 120" fill="none">
  <g transform="translate(-600, -1270)">
    <path d="M660 1323C664.971 1323 669 1327.03 669 1332C669 1336.97 664.971 1341 660 1341C655.029 1341 651 1336.97 651 1332C651 1327.03 655.029 1323 660 1323ZM660 1328C659.448 1328 659 1328.45 659 1329V1331H657C656.448 1331 656 1331.45 656 1332C656 1332.55 656.448 1333 657 1333H659V1335C659 1335.55 659.448 1336 660 1336C660.552 1336 661 1335.55 661 1335V1333H663C663.552 1333 664 1332.55 664 1332C664 1331.45 663.552 1331 663 1331H661V1329C661 1328.45 660.552 1328 660 1328Z" fill="#222222" />
  </g>
</svg>