<?xml version="1.0" encoding="UTF-8"?>
<svg xmlns="http://www.w3.org/2000/svg" width="24" height="24" viewBox="0 0 120 120" fill="none">
  <g transform="translate(-340, -1410)">
    <path d="M399.998 1461.88C400.755 1461.88 401.441 1462.53 401.441 1463.43V1464.15C401.441 1464.65 401.292 1465.21 400.917 1465.87C400.682 1466.29 400.56 1466.76 400.56 1467.24C400.56 1468.14 400.988 1468.99 401.727 1469.5L403.512 1470.74C403.513 1470.74 403.513 1470.74 403.513 1470.74C403.514 1470.74 403.514 1470.74 403.514 1470.74C403.887 1471 404.125 1471.44 404.125 1471.95V1472.88C404.125 1472.95 404.083 1473.02 404.016 1473.05C402.807 1473.66 401.444 1474 400 1474C398.556 1474 397.193 1473.66 395.984 1473.05C395.917 1473.02 395.875 1472.95 395.875 1472.88V1471.95C395.875 1471.44 396.114 1471 396.483 1470.74L398.266 1469.5C398.266 1469.5 398.267 1469.5 398.267 1469.5C398.267 1469.5 398.268 1469.5 398.268 1469.5C399.011 1468.99 399.437 1468.14 399.437 1467.24C399.437 1466.76 399.321 1466.31 399.083 1465.88L399.079 1465.87L398.949 1465.63C398.67 1465.07 398.554 1464.58 398.554 1464.15V1463.43C398.554 1462.53 399.241 1461.88 399.998 1461.88ZM400 1456C404.971 1456 409 1460.03 409 1465C409 1467.58 407.915 1469.9 406.179 1471.54C406.057 1471.66 405.856 1471.57 405.829 1471.41C405.689 1470.56 405.224 1469.79 404.508 1469.3L402.724 1468.06C402.724 1468.06 402.723 1468.06 402.723 1468.06C402.723 1468.06 402.723 1468.06 402.722 1468.06C402.474 1467.89 402.31 1467.58 402.31 1467.24C402.31 1467.06 402.356 1466.88 402.44 1466.73C402.44 1466.73 402.441 1466.73 402.441 1466.73C402.441 1466.73 402.442 1466.73 402.442 1466.73C402.926 1465.87 403.191 1465.02 403.191 1464.15V1463.43C403.191 1461.65 401.8 1460.13 399.998 1460.12C398.196 1460.12 396.804 1461.65 396.804 1463.43V1464.15C396.804 1465.02 397.071 1465.87 397.55 1466.72C397.55 1466.72 397.55 1466.72 397.55 1466.72C397.55 1466.72 397.55 1466.72 397.55 1466.72C397.647 1466.9 397.687 1467.06 397.687 1467.24C397.687 1467.59 397.522 1467.89 397.274 1468.06C397.273 1468.06 397.272 1468.06 397.271 1468.06L395.487 1469.3C395.487 1469.3 395.486 1469.3 395.485 1469.3C395.485 1469.3 395.484 1469.3 395.483 1469.3C394.773 1469.8 394.309 1470.56 394.17 1471.41C394.143 1471.57 393.942 1471.66 393.82 1471.54C392.084 1469.9 391 1467.58 391 1465C391 1460.03 395.029 1456 400 1456Z" fill="#222222" />
  </g>
</svg>