<?xml version="1.0" encoding="UTF-8"?>
<svg xmlns="http://www.w3.org/2000/svg" width="24" height="24" viewBox="0 0 120 120" fill="none">
  <g transform="translate(-1120, -1410)">
    <path d="M1187 1465C1188.66 1465 1190 1466.34 1190 1468V1472C1190 1473.66 1188.66 1475 1187 1475H1173C1171.34 1475 1170 1473.66 1170 1472V1468C1170 1466.34 1171.34 1465 1173 1465H1187ZM1176 1468.62C1175.52 1468.62 1175.12 1469.02 1175.12 1469.5V1470.5C1175.12 1470.98 1175.52 1471.38 1176 1471.38C1176.48 1471.38 1176.88 1470.98 1176.88 1470.5V1469.5C1176.88 1469.02 1176.48 1468.62 1176 1468.62ZM1180 1468.62C1179.52 1468.62 1179.12 1469.02 1179.12 1469.5V1470.5C1179.12 1470.98 1179.52 1471.38 1180 1471.38C1180.48 1471.38 1180.88 1470.98 1180.88 1470.5V1469.5C1180.88 1469.02 1180.48 1468.62 1180 1468.62ZM1184 1468.62C1183.52 1468.62 1183.12 1469.02 1183.12 1469.5V1470.5C1183.12 1470.98 1183.52 1471.38 1184 1471.38C1184.48 1471.38 1184.88 1470.98 1184.88 1470.5V1469.5C1184.88 1469.02 1184.48 1468.62 1184 1468.62Z" fill="#222222" />
    <path d="M1184 1456H1176C1175.45 1456 1175 1456.45 1175 1457V1459.46C1175 1459.8 1175.17 1460.11 1175.45 1460.3L1177.55 1461.7C1177.83 1461.89 1178 1462.2 1178 1462.54V1465C1178 1465.55 1178.45 1466 1179 1466H1181C1181.55 1466 1182 1465.55 1182 1465V1462.54C1182 1462.2 1182.17 1461.89 1182.45 1461.7L1184.55 1460.3C1184.83 1460.11 1185 1459.8 1185 1459.46V1457C1185 1456.45 1184.55 1456 1184 1456Z" fill="#222222" stroke="#222222" stroke-width="2" stroke-linecap="round" stroke-linejoin="round" />
  </g>
</svg>