<?xml version="1.0" encoding="UTF-8"?>
<svg xmlns="http://www.w3.org/2000/svg" width="24" height="24" viewBox="0 0 120 120" fill="none">
  <g transform="translate(-80, -870)">
    <path d="M148 932.239L140.436 939.593C139.509 940.494 138.252 941 136.941 941C135.631 941 134.374 940.494 133.447 939.593C132.521 938.692 132 937.47 132 936.196C132 934.922 132.521 933.7 133.447 932.799L140.501 925.941C141.119 925.339 141.958 925.001 142.832 925C143.707 924.999 144.545 925.336 145.164 925.937C145.783 926.538 146.131 927.353 146.132 928.203C146.133 929.053 145.786 929.869 145.168 930.47L138.098 937.328C137.789 937.629 137.37 937.797 136.933 937.797C136.496 937.797 136.077 937.629 135.769 937.328C135.46 937.028 135.286 936.621 135.286 936.196C135.286 935.771 135.46 935.364 135.769 935.064L142.757 928.278" stroke="#222222" stroke-width="2.4" stroke-linecap="round" stroke-linejoin="round" />
  </g>
</svg>