<?xml version="1.0" encoding="UTF-8"?>
<svg xmlns="http://www.w3.org/2000/svg" width="24" height="24" viewBox="0 0 120 120" fill="none">
  <g transform="translate(-860, -1540)">
    <path d="M919.996 1589C922.043 1589 923.706 1590.66 923.706 1592.71V1593.8C923.706 1594.84 923.375 1595.91 922.687 1597.08C922.432 1597.51 922.295 1598 922.295 1598.5C922.295 1599.45 922.77 1600.33 923.56 1600.85L925.333 1602.02L923.531 1603.82L922.584 1602.87C921.655 1601.95 920.149 1601.95 919.221 1602.87C918.292 1603.8 918.292 1605.31 919.221 1606.24L919.983 1607H912.828C912.371 1607 912 1606.63 912 1606.17V1605.67C912 1604.49 912.59 1603.39 913.575 1602.73L916.434 1600.85C917.226 1600.33 917.698 1599.45 917.698 1598.5C917.698 1598 917.562 1597.51 917.307 1597.07C916.622 1595.91 916.286 1594.84 916.286 1593.8V1592.71C916.286 1590.66 917.949 1589 919.996 1589Z" fill="#222222" />
    <path d="M920.9 1604.55L923.525 1607.18L929.15 1601.55" stroke="#222222" stroke-width="1.75" stroke-linecap="round" stroke-linejoin="round" />
  </g>
</svg>