<?xml version="1.0" encoding="UTF-8"?>
<svg xmlns="http://www.w3.org/2000/svg" width="24" height="24" viewBox="0 0 120 120" fill="none">
  <g transform="translate(-340, -1270)">
    <path d="M400 1323C404.971 1323 409 1327.03 409 1332C409 1336.97 404.971 1341 400 1341C395.029 1341 391 1336.97 391 1332C391 1327.03 395.029 1323 400 1323ZM404.312 1329.26C403.906 1328.89 403.274 1328.92 402.899 1329.32L399.064 1333.48L397.13 1331.18C396.775 1330.75 396.144 1330.7 395.721 1331.05C395.298 1331.41 395.242 1332.04 395.597 1332.46L398.263 1335.64C398.447 1335.86 398.718 1335.99 399.006 1336C399.293 1336.01 399.57 1335.89 399.765 1335.68L404.37 1330.68C404.744 1330.27 404.719 1329.64 404.312 1329.26Z" fill="#222222" />
  </g>
</svg>