<?xml version="1.0" encoding="UTF-8"?>
<svg xmlns="http://www.w3.org/2000/svg" width="24" height="24" viewBox="0 0 120 120" fill="none">
  <g transform="translate(-860, -1410)">
    <path d="M926 1456C927.657 1456 929 1457.34 929 1459V1471C929 1472.66 927.657 1474 926 1474H914C912.343 1474 911 1472.66 911 1471V1459C911 1457.34 912.343 1456 914 1456H926ZM924.561 1461.33C924.189 1461.02 923.638 1461.07 923.328 1461.44L918.941 1466.7L917.119 1464.88C916.777 1464.54 916.223 1464.54 915.881 1464.88C915.539 1465.22 915.539 1465.78 915.881 1466.12L918.381 1468.62C918.555 1468.79 918.794 1468.89 919.04 1468.87C919.285 1468.86 919.515 1468.75 919.672 1468.56L924.672 1462.56C924.981 1462.19 924.931 1461.64 924.561 1461.33Z" fill="#222222" />
  </g>
</svg>