<?xml version="1.0" encoding="UTF-8"?>
<svg xmlns="http://www.w3.org/2000/svg" width="24" height="24" viewBox="0 0 120 120" fill="none">
  <g transform="translate(-470, -1270)">
    <path d="M530 1323C534.971 1323 539 1327.03 539 1332C539 1336.97 534.971 1341 530 1341C525.029 1341 521 1336.97 521 1332C521 1327.03 525.029 1323 530 1323ZM533.457 1328.54C533.067 1328.15 532.433 1328.15 532.043 1328.54L530 1330.59L527.957 1328.54C527.567 1328.15 526.933 1328.15 526.543 1328.54C526.152 1328.93 526.152 1329.57 526.543 1329.96L528.586 1332L526.543 1334.04L526.474 1334.12C526.154 1334.51 526.177 1335.09 526.543 1335.46C526.909 1335.82 527.488 1335.85 527.881 1335.53L527.957 1335.46L530 1333.41L532.043 1335.46L532.119 1335.53C532.512 1335.85 533.091 1335.82 533.457 1335.46C533.823 1335.09 533.846 1334.51 533.526 1334.12L533.457 1334.04L531.414 1332L533.457 1329.96C533.847 1329.57 533.848 1328.93 533.457 1328.54Z" fill="#222222" />
  </g>
</svg>