<?xml version="1.0" encoding="UTF-8"?>
<svg xmlns="http://www.w3.org/2000/svg" width="24" height="24" viewBox="0 0 120 120" fill="none">
  <g transform="translate(-210, -1270)">
    <path d="M270 1323C274.971 1323 279 1327.03 279 1332C279 1336.97 274.971 1341 270 1341C265.029 1341 261 1336.97 261 1332C261 1327.03 265.029 1323 270 1323ZM270 1334.5C269.448 1334.5 269 1334.95 269 1335.5C269 1336.05 269.448 1336.5 270 1336.5C270.552 1336.5 271 1336.05 271 1335.5C271 1334.95 270.552 1334.5 270 1334.5ZM270.002 1327.5C269.453 1327.5 269.012 1327.95 269.024 1328.5C269.058 1329.99 269.075 1331.12 269.109 1332.63C269.121 1333.11 269.515 1333.5 269.998 1333.5C270.482 1333.5 270.878 1333.11 270.889 1332.63L270.979 1328.5C270.99 1327.95 270.55 1327.5 270.002 1327.5Z" fill="#222222" />
  </g>
</svg>