<?xml version="1.0" encoding="UTF-8"?>
<svg xmlns="http://www.w3.org/2000/svg" width="24" height="24" viewBox="0 0 120 120" fill="none">
  <g transform="translate(-990, -870)">
    <path d="M1051.8 928.25C1053.46 928.25 1054.8 929.593 1054.8 931.25V937.3C1054.8 937.576 1054.58 937.8 1054.3 937.8H1048.2C1046.54 937.8 1045.2 936.457 1045.2 934.8V928.75C1045.2 928.474 1045.42 928.25 1045.7 928.25H1051.8ZM1056.5 923.5C1058.16 923.5 1059.5 924.843 1059.5 926.5V934.8C1059.5 936.457 1058.16 937.8 1056.5 937.8C1056.39 937.8 1056.3 937.71 1056.3 937.6V931.25C1056.3 928.765 1054.29 926.75 1051.8 926.75H1045.45C1045.31 926.75 1045.2 926.638 1045.2 926.5C1045.2 924.843 1046.54 923.5 1048.2 923.5H1056.5Z" fill="#222222" />
    <rect x="1040.5" y="928.25" width="14.3" height="14.3" rx="3" fill="#222222" />
  </g>
</svg>