<?xml version="1.0" encoding="UTF-8"?>
<svg xmlns="http://www.w3.org/2000/svg" width="24" height="24" viewBox="0 0 120 120" fill="none">
  <g transform="translate(-1250, -1010)">
    <path d="M1307 1057.5C1306.58 1058.53 1306.35 1059.65 1306.35 1060.82C1306.35 1065.7 1310.3 1069.65 1315.18 1069.65C1316.35 1069.65 1317.47 1069.41 1318.5 1069C1317.19 1072.22 1314.02 1074.5 1310.32 1074.5C1305.45 1074.5 1301.5 1070.55 1301.5 1065.68C1301.5 1061.98 1303.77 1058.81 1307 1057.5Z" fill="#222222" />
    <path d="M1307 1057.5L1307.82 1057.83C1307.95 1057.5 1307.88 1057.13 1307.62 1056.88C1307.37 1056.63 1307 1056.55 1306.67 1056.68L1307 1057.5ZM1306.35 1060.82L1305.47 1060.82V1060.82H1306.35ZM1315.18 1069.65V1070.53H1315.18L1315.18 1069.65ZM1318.5 1069L1319.32 1069.33C1319.45 1069 1319.37 1068.62 1319.12 1068.37C1318.87 1068.12 1318.49 1068.05 1318.17 1068.18L1318.5 1069ZM1310.32 1074.5L1310.32 1075.38H1310.32V1074.5ZM1301.5 1065.68H1300.62V1065.68L1301.5 1065.68ZM1307 1057.5L1306.18 1057.17C1305.72 1058.3 1305.47 1059.53 1305.47 1060.82L1306.35 1060.82L1307.23 1060.82C1307.23 1059.76 1307.44 1058.76 1307.82 1057.83L1307 1057.5ZM1306.35 1060.82H1305.47C1305.47 1066.18 1309.82 1070.53 1315.18 1070.53V1069.65V1068.76C1310.79 1068.76 1307.23 1065.21 1307.23 1060.82H1306.35ZM1315.18 1069.65L1315.18 1070.53C1316.47 1070.53 1317.7 1070.27 1318.83 1069.81L1318.5 1069L1318.17 1068.18C1317.24 1068.56 1316.23 1068.76 1315.18 1068.76L1315.18 1069.65ZM1318.5 1069L1317.68 1068.66C1316.5 1071.57 1313.65 1073.62 1310.32 1073.62V1074.5V1075.38C1314.39 1075.38 1317.87 1072.88 1319.32 1069.33L1318.5 1069ZM1310.32 1074.5L1310.32 1073.62C1305.94 1073.62 1302.38 1070.06 1302.38 1065.68L1301.5 1065.68L1300.62 1065.68C1300.62 1071.04 1304.96 1075.38 1310.32 1075.38L1310.32 1074.5ZM1301.5 1065.68H1302.38C1302.38 1062.35 1304.43 1059.5 1307.33 1058.32L1307 1057.5L1306.67 1056.68C1303.12 1058.13 1300.62 1061.61 1300.62 1065.68H1301.5Z" fill="#222222" />
  </g>
</svg>