<?xml version="1.0" encoding="UTF-8"?>
<svg xmlns="http://www.w3.org/2000/svg" width="24" height="24" viewBox="0 0 120 120" fill="none">
  <g transform="translate(-730, -740)">
    <path d="M788 791.5H792" stroke="#222222" stroke-width="2" stroke-linecap="round" />
    <path d="M797.997 794.571L797.13 806.714C797.018 808.284 795.712 809.5 794.138 809.5H785.863C784.289 809.5 782.983 808.284 782.87 806.714L782.003 794.571L781.926 793.5H798.074L797.997 794.571ZM790 797.125C789.517 797.125 789.125 797.517 789.125 798V804.5C789.125 804.983 789.517 805.375 790 805.375C790.483 805.375 790.875 804.983 790.875 804.5V798C790.875 797.517 790.483 797.125 790 797.125ZM793.233 797.131C792.75 797.107 792.336 797.479 792.309 797.962L791.943 804.452C791.915 804.935 792.285 805.345 792.768 805.368C793.25 805.391 793.663 805.019 793.691 804.537L794.057 798.047C794.084 797.565 793.715 797.155 793.233 797.131ZM786.691 797.136C786.208 797.167 785.847 797.583 785.883 798.064L786.371 804.549C786.408 805.03 786.828 805.396 787.31 805.365C787.792 805.334 788.153 804.917 788.117 804.436L787.629 797.951C787.593 797.47 787.173 797.105 786.691 797.136Z" fill="#222222" />
    <path d="M782 794.5L798 794.5" stroke="#222222" stroke-width="2" stroke-linecap="round" />
  </g>
</svg>