<?xml version="1.0" encoding="UTF-8"?>
<svg xmlns="http://www.w3.org/2000/svg" width="24" height="24" viewBox="0 0 120 120" fill="none">
  <g transform="translate(-990, -1540)">
    <path d="M1048 1606.5H1043.5C1042.4 1606.5 1041.5 1605.6 1041.5 1604.5V1601" stroke="#222222" stroke-width="2.5" stroke-linecap="round" stroke-linejoin="round" />
    <path d="M1050 1589.5H1056.5C1057.6 1589.5 1058.5 1590.4 1058.5 1591.5V1595" stroke="#222222" stroke-width="2.5" stroke-linecap="round" stroke-linejoin="round" />
    <path d="M1040.5 1597.76V1598.04C1040.5 1598.29 1040.71 1598.5 1040.97 1598.5H1049.03C1049.29 1598.5 1049.5 1598.29 1049.5 1598.04V1597.76C1049.5 1597.1 1049.17 1596.49 1048.61 1596.13L1047 1595.08C1046.56 1594.79 1046.29 1594.31 1046.29 1593.78C1046.29 1593.5 1046.37 1593.23 1046.51 1592.99C1046.9 1592.34 1047.08 1591.75 1047.08 1591.17V1590.56C1047.08 1589.42 1046.15 1588.5 1045 1588.5C1043.85 1588.5 1042.91 1589.42 1042.91 1590.56V1591.16C1042.91 1591.74 1043.1 1592.34 1043.48 1592.99C1043.63 1593.23 1043.71 1593.5 1043.71 1593.78C1043.71 1594.31 1043.44 1594.79 1042.99 1595.08L1041.39 1596.13C1040.83 1596.49 1040.5 1597.1 1040.5 1597.76Z" fill="#222222" />
    <path d="M1050.5 1606.76V1607.04C1050.5 1607.29 1050.71 1607.5 1050.97 1607.5H1059.03C1059.29 1607.5 1059.5 1607.29 1059.5 1607.04V1606.76C1059.5 1606.1 1059.17 1605.49 1058.61 1605.13L1057 1604.08C1056.56 1603.79 1056.29 1603.31 1056.29 1602.78C1056.29 1602.5 1056.37 1602.23 1056.51 1601.99C1056.9 1601.34 1057.08 1600.75 1057.08 1600.17V1599.56C1057.08 1598.42 1056.15 1597.5 1055 1597.5C1053.85 1597.5 1052.91 1598.42 1052.91 1599.56V1600.16C1052.91 1600.74 1053.1 1601.34 1053.48 1601.99C1053.63 1602.23 1053.71 1602.5 1053.71 1602.78C1053.71 1603.31 1053.44 1603.79 1052.99 1604.08L1051.39 1605.13C1050.83 1605.49 1050.5 1606.1 1050.5 1606.76Z" fill="#222222" />
  </g>
</svg>