<?xml version="1.0" encoding="UTF-8"?>
<svg xmlns="http://www.w3.org/2000/svg" width="24" height="24" viewBox="0 0 120 120" fill="none">
  <g transform="translate(-1120, -740)">
    <path d="M1171.5 798.094L1177.6 797.626L1180 792L1182.4 797.626L1188.5 798.094L1183.77 801.953L1185.33 808.001L1180 804.603L1174.67 808.001L1176.23 801.953L1171.5 798.094Z" fill="#222222" />
    <path d="M1177.6 797.626L1177.67 798.623C1178.04 798.595 1178.37 798.362 1178.52 798.019L1177.6 797.626ZM1171.5 798.094L1171.42 797.097C1171.02 797.128 1170.67 797.404 1170.55 797.794C1170.42 798.184 1170.55 798.61 1170.87 798.868L1171.5 798.094ZM1176.23 801.953L1177.19 802.203C1177.29 801.825 1177.16 801.425 1176.86 801.179L1176.23 801.953ZM1174.67 808.001L1173.7 807.752C1173.6 808.149 1173.75 808.569 1174.08 808.81C1174.41 809.052 1174.86 809.065 1175.2 808.844L1174.67 808.001ZM1182.4 797.626L1181.48 798.019C1181.63 798.362 1181.96 798.595 1182.33 798.623L1182.4 797.626ZM1188.5 798.094L1189.13 798.868C1189.45 798.61 1189.58 798.184 1189.45 797.794C1189.33 797.404 1188.98 797.128 1188.58 797.097L1188.5 798.094ZM1183.77 801.953L1183.14 801.179C1182.84 801.425 1182.71 801.825 1182.81 802.203L1183.77 801.953ZM1185.33 808.001L1184.8 808.845C1185.14 809.065 1185.59 809.052 1185.92 808.81C1186.25 808.569 1186.4 808.149 1186.3 807.752L1185.33 808.001ZM1180 792L1180.92 791.607C1180.76 791.239 1180.4 791 1180 791C1179.6 791 1179.24 791.239 1179.08 791.607L1180 792ZM1180 804.603L1180.54 803.76C1180.21 803.551 1179.79 803.551 1179.46 803.76L1180 804.603ZM1177.6 797.626L1177.52 796.629L1171.42 797.097L1171.5 798.094L1171.58 799.091L1177.67 798.623L1177.6 797.626ZM1171.5 798.094L1170.87 798.868L1175.59 802.728L1176.23 801.953L1176.86 801.179L1172.13 797.319L1171.5 798.094ZM1176.23 801.953L1175.26 801.704L1173.7 807.752L1174.67 808.001L1175.64 808.251L1177.19 802.203L1176.23 801.953ZM1182.4 797.626L1182.33 798.623L1188.42 799.091L1188.5 798.094L1188.58 797.097L1182.48 796.629L1182.4 797.626ZM1188.5 798.094L1187.87 797.319L1183.14 801.179L1183.77 801.953L1184.41 802.728L1189.13 798.868L1188.5 798.094ZM1183.77 801.953L1182.81 802.203L1184.36 808.251L1185.33 808.001L1186.3 807.752L1184.74 801.704L1183.77 801.953ZM1182.4 797.626L1183.32 797.233L1180.92 791.607L1180 792L1179.08 792.393L1181.48 798.019L1182.4 797.626ZM1180 792L1179.08 791.607L1176.68 797.233L1177.6 797.626L1178.52 798.019L1180.92 792.393L1180 792ZM1185.33 808.001L1185.87 807.158L1180.54 803.76L1180 804.603L1179.46 805.447L1184.8 808.845L1185.33 808.001ZM1180 804.603L1179.46 803.76L1174.13 807.158L1174.67 808.001L1175.2 808.844L1180.54 805.446L1180 804.603Z" fill="#222222" />
  </g>
</svg>