<?xml version="1.0" encoding="UTF-8"?>
<svg xmlns="http://www.w3.org/2000/svg" width="24" height="24" viewBox="0 0 120 120" fill="none">
  <g transform="translate(-210, -1410)">
    <path d="M271.125 1461C271.125 1462.04 271.964 1462.88 273 1462.88H278V1464.46C278 1464.84 277.595 1465.09 277.24 1464.96C276.644 1464.75 276.003 1464.63 275.334 1464.63C272.186 1464.63 269.634 1467.19 269.634 1470.33C269.634 1471.52 269.998 1472.63 270.621 1473.54C270.877 1473.91 270.631 1474.5 270.177 1474.5H265C263.343 1474.5 262 1473.16 262 1471.5V1458.5C262 1456.84 263.343 1455.5 265 1455.5H271.125V1461ZM272.875 1455.61C273.449 1455.77 273.969 1456.1 274.362 1456.56L277.289 1460.02C277.565 1460.34 277.764 1460.72 277.881 1461.12H273C272.931 1461.12 272.875 1461.07 272.875 1461V1455.61Z" fill="#222222" />
    <path d="M275.333 1473.67C277.174 1473.67 278.667 1472.17 278.667 1470.33C278.667 1468.49 277.174 1467 275.333 1467C273.492 1467 272 1468.49 272 1470.33C272 1472.17 273.492 1473.67 275.333 1473.67Z" stroke="#222222" stroke-width="1.75" stroke-miterlimit="10" />
    <path d="M278.397 1472.16L277.778 1471.54L276.54 1472.78L277.159 1473.4L277.778 1472.78L278.397 1472.16ZM279.381 1475.62C279.723 1475.96 280.277 1475.96 280.619 1475.62C280.961 1475.28 280.961 1474.72 280.619 1474.38L280 1475L279.381 1475.62ZM277.778 1472.78L277.159 1473.4L279.381 1475.62L280 1475L280.619 1474.38L278.397 1472.16L277.778 1472.78Z" fill="#222222" />
  </g>
</svg>