<?xml version="1.0" encoding="UTF-8"?>
<svg xmlns="http://www.w3.org/2000/svg" width="24" height="24" viewBox="0 0 120 120" fill="none">
  <g transform="translate(-340, -870)">
    <path d="M401.125 929C401.125 930.036 401.964 930.875 403 930.875H408V939.5C408 941.157 406.657 942.5 405 942.5H395C393.343 942.5 392 941.157 392 939.5V926.5C392 924.843 393.343 923.5 395 923.5H401.125V929ZM402.875 923.608C403.449 923.768 403.969 924.097 404.362 924.561L407.289 928.017C407.565 928.342 407.764 928.721 407.881 929.125H403C402.931 929.125 402.875 929.069 402.875 929V923.608Z" fill="#222222" />
  </g>
</svg>