<?xml version="1.0" encoding="UTF-8"?>
<svg xmlns="http://www.w3.org/2000/svg" width="24" height="24" viewBox="0 0 120 120" fill="none">
  <g transform="translate(-600, -1010)">
    <path d="M655.5 1072L655.5 1074" stroke="#222222" stroke-width="2.5" stroke-linecap="round" stroke-linejoin="round" />
    <path d="M655.5 1058L655.5 1067" stroke="#222222" stroke-width="2.5" stroke-linecap="round" stroke-linejoin="round" />
    <path d="M658 1069.5C658 1070.88 656.881 1072 655.5 1072C654.119 1072 653 1070.88 653 1069.5C653 1068.12 654.119 1067 655.5 1067C656.881 1067 658 1068.12 658 1069.5Z" fill="#222222" />
    <path fill-rule="evenodd" clip-rule="evenodd" d="M655.5 1068C654.672 1068 654 1068.67 654 1069.5C654 1070.33 654.672 1071 655.5 1071C656.328 1071 657 1070.33 657 1069.5C657 1068.67 656.328 1068 655.5 1068ZM652 1069.5C652 1067.57 653.567 1066 655.5 1066C657.433 1066 659 1067.57 659 1069.5C659 1071.43 657.433 1073 655.5 1073C653.567 1073 652 1071.43 652 1069.5Z" fill="#222222" />
    <path d="M664.5 1060L664.5 1058" stroke="#222222" stroke-width="2.5" stroke-linecap="round" stroke-linejoin="round" />
    <path d="M664.5 1074L664.5 1065" stroke="#222222" stroke-width="2.5" stroke-linecap="round" stroke-linejoin="round" />
    <path d="M667 1062.5C667 1063.88 665.881 1065 664.5 1065C663.119 1065 662 1063.88 662 1062.5C662 1061.12 663.119 1060 664.5 1060C665.881 1060 667 1061.12 667 1062.5Z" fill="#222222" />
    <path fill-rule="evenodd" clip-rule="evenodd" d="M664.5 1061C663.672 1061 663 1061.67 663 1062.5C663 1063.33 663.672 1064 664.5 1064C665.328 1064 666 1063.33 666 1062.5C666 1061.67 665.328 1061 664.5 1061ZM661 1062.5C661 1060.57 662.567 1059 664.5 1059C666.433 1059 668 1060.57 668 1062.5C668 1064.43 666.433 1066 664.5 1066C662.567 1066 661 1064.43 661 1062.5Z" fill="#222222" />
  </g>
</svg>