<?xml version="1.0" encoding="UTF-8"?>
<svg xmlns="http://www.w3.org/2000/svg" width="24" height="24" viewBox="0 0 120 120" fill="none">
  <g transform="translate(-470, -740)">
    <path d="M532.971 801C532.844 803.216 532.308 805.196 531.651 806.661C531.272 807.505 530.867 808.144 530.507 808.554C530.23 808.868 530.056 808.96 530 808.987C529.944 808.96 529.771 808.869 529.493 808.554C529.133 808.144 528.729 807.505 528.35 806.661C527.692 805.196 527.157 803.216 527.03 801H532.971ZM525.028 801C525.157 803.507 525.757 805.768 526.526 807.48C526.687 807.84 526.859 808.181 527.037 808.498C523.825 807.378 521.442 804.491 521.056 801H525.028ZM538.944 801C538.558 804.491 536.175 807.378 532.962 808.498C533.141 808.181 533.313 807.84 533.475 807.48C534.243 805.768 534.844 803.507 534.973 801H538.944ZM532.962 791.501C536.175 792.62 538.558 795.508 538.944 799H534.973C534.844 796.492 534.244 794.231 533.475 792.519C533.313 792.159 533.141 791.818 532.962 791.501ZM527.037 791.5C526.858 791.817 526.688 792.159 526.526 792.519C525.757 794.231 525.157 796.492 525.028 799H521.056C521.442 795.508 523.825 792.62 527.037 791.5ZM530 791.012C530.056 791.039 530.229 791.13 530.507 791.446C530.867 791.855 531.272 792.495 531.651 793.339C532.308 794.804 532.844 796.784 532.971 799H527.03C527.157 796.784 527.692 794.804 528.35 793.339C528.729 792.495 529.133 791.855 529.493 791.446C529.771 791.13 529.945 791.038 530 791.012Z" fill="#222222" />
  </g>
</svg>