<?xml version="1.0" encoding="UTF-8"?>
<svg xmlns="http://www.w3.org/2000/svg" width="24" height="24" viewBox="0 0 120 120" fill="none">
  <g transform="translate(-80, -1270)">
    <path d="M140 1323C144.971 1323 149 1327.03 149 1332C149 1336.97 144.971 1341 140 1341C135.029 1341 131 1336.97 131 1332C131 1327.03 135.029 1323 140 1323ZM140 1334.69C139.448 1334.69 139 1335.14 139 1335.69C139 1336.24 139.448 1336.69 140 1336.69C140.552 1336.69 141 1336.24 141 1335.69C141 1335.14 140.552 1334.69 140 1334.69ZM139.948 1327.57C138.807 1327.57 137.793 1328.3 137.432 1329.38L137.393 1329.5C137.24 1329.96 137.488 1330.45 137.946 1330.61C138.404 1330.76 138.9 1330.51 139.053 1330.05L139.092 1329.94C139.215 1329.57 139.56 1329.32 139.948 1329.32H140C140.498 1329.32 140.903 1329.72 140.903 1330.22C140.903 1330.51 140.769 1330.77 140.542 1330.94L139.831 1331.48C139.387 1331.81 139.125 1332.33 139.125 1332.89C139.125 1333.37 139.517 1333.76 140 1333.76C140.483 1333.76 140.875 1333.37 140.875 1332.89C140.875 1332.88 140.878 1332.88 140.881 1332.88L141.592 1332.34C142.26 1331.84 142.653 1331.06 142.653 1330.22C142.653 1328.76 141.465 1327.57 140 1327.57H139.948Z" fill="#222222" />
  </g>
</svg>