<?xml version="1.0" encoding="UTF-8"?>
<svg xmlns="http://www.w3.org/2000/svg" width="24" height="24" viewBox="0 0 120 120" fill="none">
  <g transform="translate(-1250, -1140)">
    <path d="M1310 1190C1314.97 1190 1319 1194.03 1319 1199C1319 1203.97 1314.97 1208 1310 1208C1305.03 1208 1301 1203.97 1301 1199C1301 1194.03 1305.03 1190 1310 1190ZM1310 1197.5C1309.45 1197.5 1309 1197.95 1309 1198.5V1202.5C1309 1203.05 1309.45 1203.5 1310 1203.5C1310.55 1203.5 1311 1203.05 1311 1202.5V1198.5C1311 1197.95 1310.55 1197.5 1310 1197.5ZM1310 1194.5C1309.38 1194.5 1308.88 1195 1308.88 1195.62C1308.88 1196.25 1309.38 1196.75 1310 1196.75C1310.62 1196.75 1311.12 1196.25 1311.12 1195.62C1311.12 1195 1310.62 1194.5 1310 1194.5Z" fill="#222222" />
  </g>
</svg>