<?xml version="1.0" encoding="UTF-8"?>
<svg xmlns="http://www.w3.org/2000/svg" width="24" height="24" viewBox="0 0 120 120" fill="none">
  <g transform="translate(-730, -1410)">
    <path d="M797 1456.5C798.657 1456.5 800 1457.84 800 1459.5V1470.5C800 1472.16 798.657 1473.5 797 1473.5H783C781.343 1473.5 780 1472.16 780 1470.5V1459.5C780 1457.84 781.343 1456.5 783 1456.5H797ZM784.75 1467.75C784.336 1467.75 784 1468.09 784 1468.5C784 1468.91 784.336 1469.25 784.75 1469.25H795.25C795.664 1469.25 796 1468.91 796 1468.5C796 1468.09 795.664 1467.75 795.25 1467.75H784.75ZM786 1463.75C785.448 1463.75 785 1464.2 785 1464.75C785 1465.3 785.448 1465.75 786 1465.75C786.552 1465.75 787 1465.3 787 1464.75C787 1464.2 786.552 1463.75 786 1463.75ZM790 1463.75C789.448 1463.75 789 1464.2 789 1464.75C789 1465.3 789.448 1465.75 790 1465.75C790.552 1465.75 791 1465.3 791 1464.75C791 1464.2 790.552 1463.75 790 1463.75ZM794 1463.75C793.448 1463.75 793 1464.2 793 1464.75C793 1465.3 793.448 1465.75 794 1465.75C794.552 1465.75 795 1465.3 795 1464.75C795 1464.2 794.552 1463.75 794 1463.75ZM784 1460.75C783.448 1460.75 783 1461.2 783 1461.75C783 1462.3 783.448 1462.75 784 1462.75C784.552 1462.75 785 1462.3 785 1461.75C785 1461.2 784.552 1460.75 784 1460.75ZM788 1460.75C787.448 1460.75 787 1461.2 787 1461.75C787 1462.3 787.448 1462.75 788 1462.75C788.552 1462.75 789 1462.3 789 1461.75C789 1461.2 788.552 1460.75 788 1460.75ZM792 1460.75C791.448 1460.75 791 1461.2 791 1461.75C791 1462.3 791.448 1462.75 792 1462.75C792.552 1462.75 793 1462.3 793 1461.75C793 1461.2 792.552 1460.75 792 1460.75ZM796 1460.75C795.448 1460.75 795 1461.2 795 1461.75C795 1462.3 795.448 1462.75 796 1462.75C796.552 1462.75 797 1462.3 797 1461.75C797 1461.2 796.552 1460.75 796 1460.75Z" fill="#222222" />
  </g>
</svg>