<?xml version="1.0" encoding="UTF-8"?>
<svg xmlns="http://www.w3.org/2000/svg" width="24" height="24" viewBox="0 0 120 120" fill="none">
  <g transform="translate(-860, -1010)">
    <path d="M925 1062.5C926.657 1062.5 928 1063.84 928 1065.5V1072.5C928 1074.16 926.657 1075.5 925 1075.5H915C913.343 1075.5 912 1074.16 912 1072.5V1065.5C912 1063.84 913.343 1062.5 915 1062.5H925ZM920 1067.38C919.517 1067.38 919.125 1067.77 919.125 1068.25V1069.75C919.125 1070.23 919.517 1070.62 920 1070.62C920.483 1070.62 920.875 1070.23 920.875 1069.75V1068.25C920.875 1067.77 920.483 1067.38 920 1067.38Z" fill="#222222" />
    <path d="M924 1064.5V1061.5C924 1059.29 922.209 1057.5 920 1057.5C917.791 1057.5 916 1059.29 916 1061.5V1064.5" stroke="#222222" stroke-width="2.5" />
  </g>
</svg>