<?xml version="1.0" encoding="UTF-8"?>
<svg xmlns="http://www.w3.org/2000/svg" width="24" height="24" viewBox="0 0 120 120" fill="none">
  <g transform="translate(-80, -740)">
    <path d="M132 807.674V808.173C132 808.63 132.37 809 132.828 809H147.172C147.63 809 148 808.63 148 808.173V807.674C148 806.487 147.41 805.387 146.417 804.735L143.56 802.85C142.77 802.33 142.295 801.45 142.295 800.504C142.295 800.002 142.431 799.506 142.686 799.077C143.375 797.914 143.707 796.843 143.707 795.799V794.707C143.707 792.661 142.044 791 139.996 791C137.949 791 136.286 792.661 136.286 794.707V795.796C136.286 796.839 136.622 797.914 137.307 799.073C137.562 799.506 137.698 799.998 137.698 800.504C137.698 801.45 137.226 802.33 136.433 802.85L133.576 804.735C132.59 805.387 132 806.487 132 807.674Z" fill="#222222" />
  </g>
</svg>