<?xml version="1.0" encoding="UTF-8"?>
<svg xmlns="http://www.w3.org/2000/svg" width="24" height="24" viewBox="0 0 120 120" fill="none">
  <g transform="translate(-210, -740)">
    <path d="M265.39 807.247V807.719C265.39 808.151 265.74 808.5 266.172 808.5H279.719C280.152 808.5 280.501 808.151 280.501 807.719V807.247C280.501 806.127 279.944 805.088 279.007 804.472L276.308 802.692C275.562 802.2 275.113 801.37 275.113 800.476C275.113 800.002 275.242 799.534 275.483 799.128C276.133 798.03 276.446 797.018 276.446 796.033V795.001C276.446 793.069 274.876 791.5 272.942 791.5C271.009 791.5 269.438 793.069 269.438 795.001V796.029C269.438 797.015 269.755 798.03 270.402 799.125C270.643 799.533 270.771 799.998 270.771 800.476C270.771 801.37 270.326 802.2 269.577 802.692L266.878 804.472C265.948 805.088 265.39 806.127 265.39 807.247Z" fill="#222222" />
    <path d="M267.052 791.5C267.735 791.5 268.374 791.696 268.913 792.035C268.3 792.865 267.938 793.891 267.938 795.001V796.029C267.938 797.351 268.366 798.628 269.109 799.887C269.169 799.988 269.211 800.098 269.237 800.21C269.228 800.298 269.224 800.387 269.224 800.477C269.224 800.567 269.229 800.656 269.238 800.745C269.171 801.027 269.001 801.275 268.754 801.438L266.052 803.22L266.049 803.222C264.699 804.117 263.89 805.625 263.89 807.247V807.719C263.89 807.994 263.941 808.256 264.03 808.5H260.282C259.85 808.5 259.5 808.151 259.5 807.719V807.247C259.5 806.126 260.058 805.088 260.988 804.472L263.687 802.691C264.435 802.2 264.881 801.37 264.881 800.477C264.881 799.999 264.752 799.534 264.512 799.125C263.865 798.031 263.548 797.015 263.548 796.029V795.001C263.548 793.069 265.119 791.5 267.052 791.5Z" fill="#222222" />
  </g>
</svg>