<?xml version="1.0" encoding="UTF-8"?>
<svg xmlns="http://www.w3.org/2000/svg" width="24" height="24" viewBox="0 0 120 120" fill="none">
  <g transform="translate(-730, -1270)">
    <path d="M790 1323C794.971 1323 799 1327.03 799 1332C799 1336.97 794.971 1341 790 1341C785.029 1341 781 1336.97 781 1332C781 1327.03 785.029 1323 790 1323ZM785.75 1330.75C785.06 1330.75 784.5 1331.31 784.5 1332C784.5 1332.69 785.06 1333.25 785.75 1333.25C786.44 1333.25 787 1332.69 787 1332C787 1331.31 786.44 1330.75 785.75 1330.75ZM790 1330.75C789.31 1330.75 788.75 1331.31 788.75 1332C788.75 1332.69 789.31 1333.25 790 1333.25C790.69 1333.25 791.25 1332.69 791.25 1332C791.25 1331.31 790.69 1330.75 790 1330.75ZM794.25 1330.75C793.56 1330.75 793 1331.31 793 1332C793 1332.69 793.56 1333.25 794.25 1333.25C794.94 1333.25 795.5 1332.69 795.5 1332C795.5 1331.31 794.94 1330.75 794.25 1330.75Z" fill="#222222" />
  </g>
</svg>