<?xml version="1.0" encoding="UTF-8"?>
<svg xmlns="http://www.w3.org/2000/svg" width="24" height="24" viewBox="0 0 120 120" fill="none">
  <g transform="translate(-340, -1540)">
    <path d="M398.063 1589C398.954 1589 399.798 1589.4 400.368 1590.08L401.669 1591.64C401.859 1591.87 402.14 1592 402.437 1592H406C407.657 1592 409 1593.34 409 1595V1599.43C409 1599.88 408.461 1600.1 408.146 1599.79L407.68 1599.32C406.752 1598.39 405.246 1598.39 404.318 1599.32C403.86 1599.78 403.628 1600.38 403.622 1600.98C403.619 1601.31 403.381 1601.62 403.052 1601.62H401C399.688 1601.62 398.625 1602.69 398.625 1604L398.627 1606.5C398.628 1606.78 398.404 1607 398.127 1607H394C392.343 1607 391 1605.66 391 1604V1592C391 1590.34 392.343 1589 394 1589H398.063Z" fill="#222222" />
    <path d="M405.379 1600.38C405.721 1600.04 406.277 1600.04 406.619 1600.38L409.617 1603.38C409.646 1603.41 409.672 1603.44 409.696 1603.47C409.808 1603.62 409.875 1603.8 409.875 1604C409.875 1604.25 409.768 1604.48 409.598 1604.64L406.618 1607.62C406.276 1607.96 405.722 1607.96 405.38 1607.62C405.038 1607.27 405.037 1606.72 405.379 1606.38L406.882 1604.87H401C400.517 1604.87 400.125 1604.48 400.125 1604C400.125 1603.52 400.517 1603.12 401 1603.12H406.882L405.379 1601.62C405.037 1601.28 405.037 1600.72 405.379 1600.38Z" fill="#222222" />
  </g>
</svg>