<?xml version="1.0" encoding="UTF-8"?>
<svg xmlns="http://www.w3.org/2000/svg" width="24" height="24" viewBox="0 0 120 120" fill="none">
  <g transform="translate(-600, -870)">
    <path d="M665 923.5C666.657 923.5 668 924.843 668 926.5V939.5C668 941.157 666.657 942.5 665 942.5H655C653.343 942.5 652 941.157 652 939.5V926.5C652 924.843 653.343 923.5 655 923.5H665ZM655.875 934.5C655.392 934.5 655 934.892 655 935.375C655 935.858 655.392 936.25 655.875 936.25H661.125C661.608 936.25 662 935.858 662 935.375C662 934.892 661.608 934.5 661.125 934.5H655.875ZM655.875 931C655.392 931 655 931.392 655 931.875C655 932.358 655.392 932.75 655.875 932.75H664.125C664.608 932.75 665 932.358 665 931.875C665 931.392 664.608 931 664.125 931H655.875ZM655.875 927.5C655.392 927.5 655 927.892 655 928.375C655 928.858 655.392 929.25 655.875 929.25H664.125C664.608 929.25 665 928.858 665 928.375C665 927.892 664.608 927.5 664.125 927.5H655.875Z" fill="#222222" />
  </g>
</svg>