<?xml version="1.0" encoding="UTF-8"?>
<svg xmlns="http://www.w3.org/2000/svg" width="24" height="24" viewBox="0 0 120 120" fill="none">
  <g transform="translate(-1250, -1540)">
    <path fill-rule="evenodd" clip-rule="evenodd" d="M1304 1588.5C1302.34 1588.5 1301 1589.84 1301 1591.5V1606C1301 1606.83 1301.67 1607.5 1302.5 1607.5H1317.5C1318.33 1607.5 1319 1606.83 1319 1606V1598.5C1319 1596.84 1317.66 1595.5 1316 1595.5H1314C1313.72 1595.5 1313.5 1595.72 1313.5 1596V1605C1313.5 1605.28 1313.28 1605.5 1313 1605.5H1312.5C1312.22 1605.5 1312 1605.28 1312 1605V1591.5C1312 1589.84 1310.66 1588.5 1309 1588.5H1304ZM1304 1592.5C1304 1592.22 1304.22 1592 1304.5 1592H1305.5C1305.78 1592 1306 1592.22 1306 1592.5V1593.5C1306 1593.78 1305.78 1594 1305.5 1594H1304.5C1304.22 1594 1304 1593.78 1304 1593.5V1592.5ZM1304 1596C1304 1595.72 1304.22 1595.5 1304.5 1595.5H1305.5C1305.78 1595.5 1306 1595.72 1306 1596V1597C1306 1597.28 1305.78 1597.5 1305.5 1597.5H1304.5C1304.22 1597.5 1304 1597.28 1304 1597V1596ZM1304.5 1599C1304.22 1599 1304 1599.22 1304 1599.5V1600.5C1304 1600.78 1304.22 1601 1304.5 1601H1305.5C1305.78 1601 1306 1600.78 1306 1600.5V1599.5C1306 1599.22 1305.78 1599 1305.5 1599H1304.5ZM1307 1592.5C1307 1592.22 1307.22 1592 1307.5 1592H1308.5C1308.78 1592 1309 1592.22 1309 1592.5V1593.5C1309 1593.78 1308.78 1594 1308.5 1594H1307.5C1307.22 1594 1307 1593.78 1307 1593.5V1592.5ZM1307.5 1595.5C1307.22 1595.5 1307 1595.72 1307 1596V1597C1307 1597.28 1307.22 1597.5 1307.5 1597.5H1308.5C1308.78 1597.5 1309 1597.28 1309 1597V1596C1309 1595.72 1308.78 1595.5 1308.5 1595.5H1307.5ZM1307 1599.5C1307 1599.22 1307.22 1599 1307.5 1599H1308.5C1308.78 1599 1309 1599.22 1309 1599.5V1600.5C1309 1600.78 1308.78 1601 1308.5 1601H1307.5C1307.22 1601 1307 1600.78 1307 1600.5V1599.5Z" fill="#222222" />
  </g>
</svg>