<?xml version="1.0" encoding="UTF-8"?>
<svg xmlns="http://www.w3.org/2000/svg" width="24" height="24" viewBox="0 0 120 120" fill="none">
  <g transform="translate(-1120, -1540)">
    <path d="M1171 1602.5C1171 1601.67 1171.67 1601 1172.5 1601H1175.5C1176.33 1601 1177 1601.67 1177 1602.5V1605.5C1177 1606.33 1176.33 1607 1175.5 1607H1172.5C1171.67 1607 1171 1606.33 1171 1605.5V1602.5Z" fill="#222222" stroke="#222222" stroke-width="1.5" stroke-linejoin="round" />
    <path d="M1186 1601V1599C1186 1598.45 1185.55 1598 1185 1598H1175C1174.45 1598 1174 1598.45 1174 1599V1601" stroke="#222222" stroke-width="2" stroke-linejoin="round" />
    <path d="M1183 1602.5C1183 1601.67 1183.67 1601 1184.5 1601H1187.5C1188.33 1601 1189 1601.67 1189 1602.5V1605.5C1189 1606.33 1188.33 1607 1187.5 1607H1184.5C1183.67 1607 1183 1606.33 1183 1605.5V1602.5Z" fill="#222222" stroke="#222222" stroke-width="1.5" stroke-linejoin="round" />
    <path d="M1177 1590.5C1177 1589.67 1177.67 1589 1178.5 1589H1181.5C1182.33 1589 1183 1589.67 1183 1590.5V1593.5C1183 1594.33 1182.33 1595 1181.5 1595H1178.5C1177.67 1595 1177 1594.33 1177 1593.5V1590.5Z" fill="#222222" stroke="#222222" stroke-width="1.5" stroke-linejoin="round" />
    <path d="M1180 1595V1598" stroke="#222222" stroke-width="1.75" stroke-linecap="round" />
  </g>
</svg>