<?xml version="1.0" encoding="UTF-8"?>
<svg xmlns="http://www.w3.org/2000/svg" width="24" height="24" viewBox="0 0 120 120" fill="none">
  <g transform="translate(-1250, -740)">
    <path d="M1306.25 800.166C1306.23 799.647 1305.98 799.214 1305.73 798.781L1303.01 794.058C1302.99 794.034 1303 794.006 1303.03 793.992L1308.14 791.041C1308.16 791.027 1308.19 791.032 1308.2 791.056L1310.93 795.779C1311.18 796.212 1311.43 796.645 1311.87 796.917C1312.32 797.188 1313.96 797.851 1314.22 797.971C1314.48 798.092 1314.66 798.243 1314.91 798.676L1315.89 800.366C1315.9 800.39 1315.89 800.419 1315.87 800.433L1307.29 805.385C1307.27 805.399 1307.24 805.391 1307.23 805.367L1306.25 803.678C1306 803.245 1305.96 803.014 1305.99 802.726C1306.01 802.437 1306.26 800.685 1306.25 800.166Z" fill="#222222" stroke="#222222" stroke-width="2" stroke-linecap="round" stroke-linejoin="round" />
    <path d="M1311.58 802.91L1315.08 808.972" stroke="#222222" stroke-width="2.5" stroke-linecap="round" />
  </g>
</svg>