<?xml version="1.0" encoding="UTF-8"?>
<svg xmlns="http://www.w3.org/2000/svg" width="24" height="24" viewBox="0 0 120 120" fill="none">
  <g transform="translate(-210, -1010)">
    <path d="M277.573 1067.2C278.296 1067.2 278.859 1067.84 278.656 1068.53C277.563 1072.28 274.103 1075.02 270 1075.02C266.68 1075.02 263.778 1073.23 262.212 1070.55C261.892 1070.01 262.147 1069.33 262.713 1069.04L262.787 1069.01C263.412 1068.69 264.165 1068.99 264.548 1069.58C265.713 1071.35 267.719 1072.52 270 1072.52C272.845 1072.52 275.263 1070.7 276.153 1068.16C276.343 1067.61 276.826 1067.2 277.402 1067.2H277.573ZM270 1056.98C273.319 1056.98 276.218 1058.77 277.784 1061.44C278.104 1061.99 277.85 1062.67 277.284 1062.95L277.21 1062.99C276.585 1063.3 275.833 1063.01 275.449 1062.42C274.285 1060.65 272.28 1059.48 270 1059.48C267.155 1059.48 264.736 1061.3 263.846 1063.84C263.656 1064.39 263.173 1064.8 262.597 1064.8H262.425C261.702 1064.8 261.139 1064.16 261.341 1063.47C262.435 1059.72 265.897 1056.98 270 1056.98Z" fill="#222222" />
    <path d="M274.725 1063.12L277.611 1063.89L278.385 1061.01" stroke="#222222" stroke-width="2.5" stroke-linecap="round" stroke-linejoin="round" />
    <path d="M261.575 1071.01L262.349 1068.12L265.235 1068.9" stroke="#222222" stroke-width="2.5" stroke-linecap="round" stroke-linejoin="round" />
  </g>
</svg>