<?xml version="1.0" encoding="UTF-8"?>
<svg xmlns="http://www.w3.org/2000/svg" width="24" height="24" viewBox="0 0 120 120" fill="none">
  <g transform="translate(-600, -740)">
    <path d="M658.875 805.75C662.672 805.75 665.75 802.672 665.75 798.875C665.75 795.078 662.672 792 658.875 792C655.078 792 652 795.078 652 798.875C652 802.672 655.078 805.75 658.875 805.75Z" stroke="#222222" stroke-width="2.5" stroke-miterlimit="10" />
    <path d="M664.883 803.116L664 802.232L662.232 804L663.116 804.884L664 804L664.883 803.116ZM667.116 808.884C667.604 809.372 668.395 809.372 668.883 808.884C669.372 808.396 669.372 807.604 668.883 807.116L668 808L667.116 808.884ZM664 804L663.116 804.884L667.116 808.884L668 808L668.883 807.116L664.883 803.116L664 804Z" fill="#222222" />
  </g>
</svg>