<?xml version="1.0" encoding="UTF-8"?>
<svg xmlns="http://www.w3.org/2000/svg" width="24" height="24" viewBox="0 0 120 120" fill="none">
  <g transform="translate(-730, -1540)">
    <path d="M789.996 1589C792.043 1589 793.706 1590.66 793.706 1592.71V1593.8C793.706 1594.84 793.375 1595.91 792.687 1597.08C792.432 1597.51 792.295 1598 792.295 1598.5C792.295 1598.51 792.291 1598.52 792.283 1598.52C790.693 1599.54 789.638 1601.31 789.638 1603.34C789.638 1604.35 789.901 1605.3 790.362 1606.12C790.57 1606.49 790.323 1607 789.899 1607H782.828C782.371 1607 782 1606.63 782 1606.17V1605.67C782 1604.49 782.59 1603.39 783.575 1602.73L786.434 1600.85C787.226 1600.33 787.698 1599.45 787.698 1598.5C787.698 1598 787.562 1597.51 787.307 1597.07C786.622 1595.91 786.286 1594.84 786.286 1593.8V1592.71C786.286 1590.66 787.949 1589 789.996 1589Z" fill="#222222" />
    <path d="M795.333 1606.67C797.174 1606.67 798.667 1605.17 798.667 1603.33C798.667 1601.49 797.174 1600 795.333 1600C793.492 1600 792 1601.49 792 1603.33C792 1605.17 793.492 1606.67 795.333 1606.67Z" stroke="#222222" stroke-width="1.75" stroke-miterlimit="10" />
    <path d="M798.397 1605.16L797.778 1604.54L796.54 1605.78L797.159 1606.4L797.778 1605.78L798.397 1605.16ZM799.381 1608.62C799.723 1608.96 800.277 1608.96 800.619 1608.62C800.961 1608.28 800.961 1607.72 800.619 1607.38L800 1608L799.381 1608.62ZM797.778 1605.78L797.159 1606.4L799.381 1608.62L800 1608L800.619 1607.38L798.397 1605.16L797.778 1605.78Z" fill="#222222" />
  </g>
</svg>