<?xml version="1.0" encoding="UTF-8"?>
<svg xmlns="http://www.w3.org/2000/svg" width="24" height="24" viewBox="0 0 120 120" fill="none">
  <g transform="translate(-990, -1010)">
    <path d="M1049.46 1055.61C1049.81 1055.51 1050.19 1055.51 1050.54 1055.61L1058.04 1057.71C1058.9 1057.95 1059.5 1058.74 1059.5 1059.63V1065.22C1059.5 1069.55 1056.95 1073.49 1052.99 1075.26L1050.82 1076.23C1050.3 1076.46 1049.7 1076.46 1049.18 1076.23L1047.01 1075.26C1043.05 1073.49 1040.5 1069.55 1040.5 1065.22V1059.63C1040.5 1058.74 1041.1 1057.95 1041.96 1057.71L1049.46 1055.61ZM1054.31 1062.51C1053.91 1062.14 1053.27 1062.17 1052.9 1062.57L1049.07 1066.74L1047.13 1064.43C1046.78 1064 1046.14 1063.95 1045.72 1064.3C1045.3 1064.66 1045.24 1065.29 1045.6 1065.71L1048.26 1068.89C1048.45 1069.11 1048.72 1069.24 1049.01 1069.25C1049.29 1069.26 1049.57 1069.14 1049.76 1068.93L1054.37 1063.93C1054.74 1063.52 1054.72 1062.89 1054.31 1062.51Z" fill="#222222" />
  </g>
</svg>