<?xml version="1.0" encoding="UTF-8"?>
<svg xmlns="http://www.w3.org/2000/svg" width="24" height="24" viewBox="0 0 120 120" fill="none">
  <g transform="translate(-340, -740)">
    <path d="M401.045 791C401.894 791 402.627 791.593 402.805 792.423L402.989 793.287C403.033 793.491 403.055 793.593 403.112 793.671C403.169 793.748 403.268 793.805 403.467 793.918C403.489 793.93 403.511 793.942 403.532 793.955C403.73 794.071 403.829 794.129 403.925 794.14C404.02 794.15 404.12 794.118 404.318 794.054L405.16 793.782C405.968 793.522 406.848 793.86 407.272 794.595L408.317 796.405C408.741 797.14 408.594 798.072 407.965 798.641L407.307 799.235C407.153 799.374 407.075 799.444 407.036 799.532C406.998 799.62 406.998 799.735 407 799.964V800.036C406.998 800.265 406.997 800.38 407.036 800.468C407.075 800.556 407.152 800.625 407.306 800.764L407.965 801.359C408.594 801.928 408.741 802.86 408.316 803.595L407.271 805.405C406.847 806.14 405.967 806.479 405.159 806.218L404.318 805.946C404.12 805.882 404.02 805.85 403.925 805.86C403.829 805.871 403.73 805.928 403.531 806.044C403.51 806.056 403.488 806.069 403.467 806.081C403.268 806.194 403.169 806.251 403.112 806.328C403.055 806.406 403.033 806.508 402.989 806.712L402.805 807.577C402.627 808.407 401.894 809 401.045 809H398.955C398.106 809 397.373 808.407 397.195 807.577L397.01 806.712C396.966 806.508 396.944 806.406 396.887 806.328C396.83 806.251 396.731 806.194 396.532 806.081C396.511 806.069 396.489 806.056 396.468 806.044C396.269 805.928 396.17 805.871 396.074 805.86C395.979 805.85 395.879 805.882 395.681 805.946L394.841 806.218C394.033 806.479 393.153 806.14 392.729 805.405L391.684 803.595C391.259 802.86 391.406 801.928 392.036 801.359L392.693 800.765C392.847 800.625 392.925 800.556 392.964 800.468C393.003 800.38 393.001 800.265 393 800.037V799.963C393.001 799.734 393.002 799.62 392.963 799.532C392.924 799.444 392.847 799.375 392.693 799.235L392.035 798.641C391.406 798.072 391.259 797.14 391.684 796.405L392.729 794.595C393.153 793.86 394.033 793.521 394.841 793.782L395.681 794.054C395.879 794.118 395.979 794.15 396.074 794.14C396.17 794.129 396.268 794.071 396.467 793.955C396.488 793.942 396.51 793.93 396.532 793.918C396.731 793.805 396.83 793.748 396.887 793.671C396.944 793.593 396.966 793.491 397.01 793.287L397.195 792.423C397.373 791.593 398.106 791 398.955 791H401.045ZM400 797C398.343 797 397 798.343 397 800C397 801.657 398.343 803 400 803C401.657 803 403 801.657 403 800C403 798.343 401.657 797 400 797Z" fill="#222222" />
  </g>
</svg>