<?xml version="1.0" encoding="UTF-8"?>
<svg xmlns="http://www.w3.org/2000/svg" width="24" height="24" viewBox="0 0 120 120" fill="none">
  <g transform="translate(-1120, -870)">
    <path d="M1180 924C1184.97 924 1189 928.029 1189 933C1189 937.971 1184.97 942 1180 942C1175.03 942 1171 937.971 1171 933C1171 928.029 1175.03 924 1180 924ZM1183.65 934.378C1183.18 934.082 1182.56 934.219 1182.27 934.685C1181.21 936.344 1178.79 936.344 1177.73 934.685C1177.44 934.219 1176.82 934.082 1176.35 934.378C1175.89 934.674 1175.75 935.293 1176.04 935.759C1177.89 938.653 1182.11 938.653 1183.96 935.759C1184.25 935.293 1184.11 934.674 1183.65 934.378ZM1177.01 930.333C1176.4 930.333 1175.9 930.831 1175.9 931.444C1175.9 932.058 1176.4 932.556 1177.01 932.556C1177.62 932.556 1178.12 932.058 1178.12 931.444C1178.12 930.831 1177.62 930.333 1177.01 930.333ZM1182.99 930.333C1182.38 930.333 1181.88 930.831 1181.88 931.444C1181.88 932.058 1182.38 932.556 1182.99 932.556C1183.6 932.556 1184.1 932.058 1184.1 931.444C1184.1 930.831 1183.6 930.333 1182.99 930.333Z" fill="#222222" />
  </g>
</svg>