<?xml version="1.0" encoding="UTF-8"?>
<svg xmlns="http://www.w3.org/2000/svg" width="24" height="24" viewBox="0 0 120 120" fill="none">
  <g transform="translate(-1250, -1410)">
    <path d="M1316.5 1459.54C1317.92 1459.78 1319 1461.01 1319 1462.5V1471.5C1319 1473.16 1317.66 1474.5 1316 1474.5H1308C1306.51 1474.5 1305.28 1473.42 1305.04 1472H1312C1314.49 1472 1316.5 1469.99 1316.5 1467.5V1459.54Z" fill="#222222" />
    <path d="M1312.15 1455.5C1313.74 1455.58 1315 1456.89 1315 1458.5V1467.5C1315 1469.16 1313.66 1470.5 1312 1470.5H1304C1302.34 1470.5 1301 1469.16 1301 1467.5V1458.5C1301 1456.84 1302.34 1455.5 1304 1455.5H1312L1312.15 1455.5ZM1305.35 1462.72C1304.87 1462.72 1304.48 1463.12 1304.48 1463.6C1304.48 1464.08 1304.87 1464.47 1305.35 1464.47H1308.65L1308.74 1464.47C1309.18 1464.42 1309.53 1464.05 1309.53 1463.6C1309.53 1463.15 1309.18 1462.77 1308.74 1462.73L1308.65 1462.72H1305.35ZM1305.35 1459.47C1304.87 1459.47 1304.48 1459.87 1304.48 1460.35C1304.48 1460.83 1304.87 1461.22 1305.35 1461.22H1310.65C1311.13 1461.22 1311.53 1460.83 1311.53 1460.35C1311.53 1459.87 1311.13 1459.47 1310.65 1459.47H1305.35Z" fill="#222222" />
  </g>
</svg>