<?xml version="1.0" encoding="UTF-8"?>
<svg xmlns="http://www.w3.org/2000/svg" width="24" height="24" viewBox="0 0 120 120" fill="none">
  <g transform="translate(-860, -870)">
    <path d="M918 926C918.232 926 918.456 926.081 918.634 926.227L918.707 926.293L919.489 927.075C919.684 927.27 919.684 927.587 919.489 927.782L916.324 930.947C915.943 931.329 915.727 931.846 915.725 932.386L915.716 935.253C915.712 936.388 916.633 937.309 917.768 937.306L920.635 937.296C921.175 937.294 921.692 937.078 922.074 936.696L925.238 933.531C925.433 933.336 925.75 933.336 925.945 933.531L926.707 934.293C926.871 934.457 926.972 934.672 926.995 934.901L927 935V940C927 941.657 925.657 943 924 943H913C911.343 943 910 941.657 910 940V929C910 927.343 911.343 926 913 926H918ZM917.716 935.259C917.716 935.26 917.716 935.26 917.715 935.26C917.715 935.26 917.715 935.26 917.715 935.259L917.725 932.394C917.725 932.394 917.725 932.394 917.725 932.393C917.725 932.393 917.726 932.393 917.726 932.394L917.716 935.259Z" fill="#222222" />
    <path d="M929.637 923.384C930.542 924.288 930.541 925.754 929.637 926.658L920.836 935.459C920.781 935.514 920.707 935.546 920.629 935.546L917.762 935.556C917.598 935.556 917.465 935.423 917.466 935.259L917.476 932.392C917.476 932.314 917.507 932.24 917.562 932.185L926.363 923.384C927.267 922.48 928.733 922.48 929.637 923.384Z" fill="#222222" stroke="#222222" stroke-width="0.5" />
  </g>
</svg>