<?xml version="1.0" encoding="UTF-8"?>
<svg xmlns="http://www.w3.org/2000/svg" width="24" height="24" viewBox="0 0 120 120" fill="none">
  <g transform="translate(-340, -2530)">
    <path d="M400.087 2598.27C400.171 2598.36 400.119 2598.5 400 2598.5C398.067 2598.5 396.5 2596.93 396.5 2595C396.5 2594.88 396.642 2594.83 396.727 2594.91L400.087 2598.27ZM400 2591.5C401.933 2591.5 403.5 2593.07 403.5 2595C403.5 2596.09 402.997 2597.07 402.21 2597.71C402.028 2597.86 401.766 2597.83 401.6 2597.66L400.999 2597.06C400.727 2596.79 400.858 2596.29 401.116 2596C401.355 2595.74 401.5 2595.39 401.5 2595C401.5 2594.17 400.828 2593.5 400 2593.5C399.615 2593.5 399.264 2593.65 398.998 2593.88C398.712 2594.14 398.209 2594.27 397.937 2594L397.335 2593.4C397.169 2593.23 397.138 2592.97 397.287 2592.79C397.929 2592 398.906 2591.5 400 2591.5Z" fill="#222222" />
    <path d="M393.796 2591.98C394.015 2592.2 393.984 2592.56 393.742 2592.76C393.055 2593.31 392.427 2593.96 391.88 2594.72C391.761 2594.89 391.761 2595.11 391.88 2595.28C394.07 2598.32 397.566 2599.69 400.929 2599.38C401.081 2599.37 401.233 2599.42 401.34 2599.53L402.262 2600.45C402.538 2600.72 402.404 2601.19 402.02 2601.25C397.5 2602.01 392.613 2600.21 389.844 2595.83C389.522 2595.33 389.522 2594.67 389.844 2594.17L390.07 2593.82C390.755 2592.81 391.557 2591.95 392.441 2591.24C392.634 2591.08 392.914 2591.1 393.09 2591.27L393.796 2591.98ZM394.529 2590.59C394.295 2590.36 394.349 2589.97 394.645 2589.82C399.878 2587.23 406.682 2588.68 410.155 2594.17C410.478 2594.67 410.478 2595.33 410.155 2595.83C408.787 2597.99 406.902 2599.53 404.801 2600.43C404.617 2600.51 404.405 2600.47 404.264 2600.33L403.518 2599.58C403.251 2599.31 403.365 2598.86 403.716 2598.72C405.41 2598.05 406.95 2596.9 408.118 2595.28C408.237 2595.11 408.237 2594.89 408.118 2594.72C405.213 2590.69 400.013 2589.6 395.87 2591.46C395.674 2591.54 395.444 2591.51 395.292 2591.36L394.529 2590.59Z" fill="#222222" />
    <path d="M391.5 2586.5L408.5 2603.5" stroke="#222222" stroke-width="1.5" stroke-linecap="round" stroke-linejoin="round" />
  </g>
</svg>