<?xml version="1.0" encoding="UTF-8"?>
<svg xmlns="http://www.w3.org/2000/svg" width="24" height="24" viewBox="0 0 120 120" fill="none">
  <g transform="translate(-600, -2400)">
    <path d="M658.706 2454.76L654.5 2458H651.75C650.784 2458 650 2458.78 650 2459.75V2464.25C650 2465.22 650.784 2466 651.75 2466H654.5L658.706 2469.24C659.643 2469.96 661 2469.29 661 2468.11V2455.89C661 2454.71 659.643 2454.04 658.706 2454.76Z" stroke="#222222" stroke-width="2" stroke-linecap="round" />
    <path d="M664.5 2459.5C665 2459.67 666.252 2460.41 666.252 2462C666.252 2463.54 665 2464.33 664.5 2464.5" stroke="#222222" stroke-width="2" stroke-linecap="round" />
    <path d="M666 2456C667 2456.5 670 2458.41 670 2462C670 2465.66 667 2467.5 666 2468" stroke="#222222" stroke-width="2" stroke-linecap="round" />
  </g>
</svg>