<?xml version="1.0" encoding="UTF-8"?>
<svg xmlns="http://www.w3.org/2000/svg" width="24" height="24" viewBox="0 0 120 120" fill="none">
  <g transform="translate(-730, -2400)">
    <path d="M781.5 2453.5L798.5 2470.5" stroke="#222222" stroke-width="1.5" stroke-linecap="round" stroke-linejoin="round" />
    <path d="M785.854 2460.54C785.947 2460.63 786 2460.76 786 2460.89V2464.25C786 2464.66 786.336 2465 786.75 2465H789.67C789.78 2465 789.887 2465.04 789.975 2465.1L790.109 2465.21L791.893 2466.58L795.11 2469.8C795.354 2470.04 795.277 2470.45 794.935 2470.51C794.323 2470.6 793.665 2470.46 793.097 2470.03L789.295 2467.1C789.208 2467.04 789.1 2467 788.99 2467H786.75C785.231 2467 784 2465.77 784 2464.25V2459.75C784 2459.71 784.001 2459.66 784.003 2459.62C784.021 2459.25 784.458 2459.14 784.719 2459.41L785.854 2460.54ZM793.097 2453.97C794.691 2452.75 796.999 2453.88 797 2455.89V2468.11C797 2468.46 796.927 2468.79 796.799 2469.08C796.678 2469.36 796.32 2469.38 796.106 2469.17L795.146 2468.21C795.053 2468.12 795 2467.99 795 2467.86V2455.89C794.999 2455.54 794.595 2455.34 794.315 2455.56L790.109 2458.79L789.975 2458.9C789.887 2458.96 789.78 2459 789.67 2459H786.75C786.715 2459 786.681 2459 786.647 2459.01C786.362 2459.05 786.019 2459.08 785.815 2458.88L785.122 2458.19C784.929 2457.99 784.925 2457.68 785.146 2457.52C785.597 2457.19 786.151 2457 786.75 2457H788.99C789.1 2457 789.208 2456.96 789.295 2456.9L793.097 2453.97Z" fill="#222222" />
  </g>
</svg>