<?xml version="1.0" encoding="UTF-8"?>
<svg xmlns="http://www.w3.org/2000/svg" width="24" height="24" viewBox="0 0 120 120" fill="none">
  <g transform="translate(-210, -2400)">
    <path d="M275 2460.53L279 2458.59L279 2465.41L275 2463.47L275 2460.53Z" stroke="#222222" stroke-width="2" />
    <path d="M261.897 2457.08C262.074 2457.26 262.077 2457.54 262.023 2457.79C262.008 2457.85 262 2457.93 262 2458V2466L262.005 2466.1C262.056 2466.61 262.482 2467 263 2467H271.607C271.74 2467 271.867 2467.05 271.961 2467.15L273.206 2468.39C273.433 2468.62 273.321 2469 273 2469H263C261.395 2469 260.084 2467.74 260.004 2466.15L260 2466V2458C260 2457.41 260.174 2456.85 260.472 2456.39C260.625 2456.15 260.958 2456.14 261.159 2456.34L261.897 2457.08ZM273 2455C274.657 2455 276 2456.34 276 2458V2466C276 2466.67 275.781 2467.28 275.412 2467.78C275.249 2468 274.933 2468 274.74 2467.8L274.043 2467.11C273.841 2466.9 273.866 2466.57 273.953 2466.3C273.983 2466.21 274 2466.11 274 2466V2458C274 2457.45 273.552 2457 273 2457H264.144C264.011 2457 263.884 2456.95 263.79 2456.85L262.659 2455.72C262.394 2455.46 262.51 2455.02 262.884 2455C262.922 2455 262.961 2455 263 2455H273Z" fill="#222222" />
    <path d="M261.5 2453.5L278.5 2470.5" stroke="#222222" stroke-width="1.5" stroke-linecap="round" stroke-linejoin="round" />
  </g>
</svg>