<?xml version="1.0" encoding="UTF-8"?>
<svg xmlns="http://www.w3.org/2000/svg" width="24" height="24" viewBox="0 0 120 120" fill="none">
  <g transform="translate(-990, -2400)">
    <path d="M1050 2468V2470.5" stroke="#222222" stroke-width="2" stroke-linecap="round" stroke-linejoin="round" />
    <path d="M1041.5 2453.5L1058.5 2470.5" stroke="#222222" stroke-width="1.5" stroke-linecap="round" stroke-linejoin="round" />
    <path d="M1043 2459C1043.55 2459 1044 2459.45 1044 2460V2461.39C1044 2464.42 1046.64 2467 1050 2467C1050.46 2467 1050.9 2466.95 1051.33 2466.86C1051.5 2466.82 1051.68 2466.87 1051.81 2467L1052.65 2467.84C1052.9 2468.09 1052.82 2468.51 1052.48 2468.62C1051.69 2468.87 1050.86 2469 1050 2469C1045.65 2469 1042 2465.64 1042 2461.39V2460C1042 2459.45 1042.45 2459 1043 2459ZM1057 2459C1057.55 2459 1058 2459.45 1058 2460V2461.39C1058 2463.85 1056.77 2466.01 1054.9 2467.39C1054.71 2467.54 1054.44 2467.51 1054.28 2467.34L1053.58 2466.64C1053.35 2466.41 1053.4 2466.02 1053.66 2465.82C1055.09 2464.79 1056 2463.17 1056 2461.39V2460C1056 2459.45 1056.45 2459 1057 2459Z" fill="#222222" />
    <path d="M1050.09 2465.27C1050.17 2465.36 1050.12 2465.5 1050 2465.5C1047.51 2465.5 1045.5 2463.49 1045.5 2461C1045.5 2460.88 1045.64 2460.83 1045.72 2460.91L1050.09 2465.27ZM1050 2452.5C1052.49 2452.5 1054.5 2454.51 1054.5 2457V2461C1054.5 2462.65 1053.61 2464.09 1052.29 2464.87C1052.11 2464.98 1051.88 2464.94 1051.72 2464.79L1051.09 2464.16C1050.8 2463.87 1050.96 2463.34 1051.31 2463.13C1052.02 2462.69 1052.5 2461.9 1052.5 2461V2457C1052.5 2455.62 1051.38 2454.5 1050 2454.5C1048.62 2454.5 1047.5 2455.62 1047.5 2457V2459.36C1047.5 2459.8 1046.96 2460.02 1046.65 2459.71L1045.65 2458.71C1045.55 2458.62 1045.5 2458.49 1045.5 2458.36V2457C1045.5 2454.51 1047.51 2452.5 1050 2452.5Z" fill="#222222" />
  </g>
</svg>