<?xml version="1.0" encoding="UTF-8"?>
<svg xmlns="http://www.w3.org/2000/svg" width="24" height="24" viewBox="0 0 120 120" fill="none">
  <g transform="translate(-600, -2110)">
    <path d="M652.444 2168.15C652.444 2168.25 652.455 2168.32 652.461 2168.44C652.574 2171.1 653.862 2174.23 656.26 2177.13C658.658 2180.03 661.477 2181.86 664.044 2182.44C664.134 2182.46 664.231 2182.48 664.32 2182.5C664.62 2182.52 664.927 2182.43 665.179 2182.22L667.017 2180.66C667.52 2180.23 667.593 2179.46 667.163 2178.95L664.595 2175.85C664.174 2175.34 663.421 2175.27 662.91 2175.7L661.631 2176.79C660.861 2176.19 660.075 2175.45 659.322 2174.53C658.569 2173.62 657.977 2172.7 657.532 2171.83L658.812 2170.74C659.314 2170.31 659.387 2169.55 658.957 2169.03L656.389 2165.93C655.968 2165.42 655.215 2165.35 654.705 2165.79L652.866 2167.35C652.615 2167.56 652.477 2167.85 652.444 2168.15Z" stroke="#222222" stroke-width="2" stroke-linejoin="round" />
  </g>
</svg>