<?xml version="1.0" encoding="UTF-8"?>
<svg xmlns="http://www.w3.org/2000/svg" width="24" height="24" viewBox="0 0 120 120" fill="none">
  <g transform="translate(-600, -2110)">
    <path d="M652 2167.81C652 2167.91 652.012 2167.98 652.017 2168.11C652.138 2170.93 653.512 2174.24 656.07 2177.32C658.627 2180.39 661.634 2182.33 664.373 2182.93C664.468 2182.96 664.572 2182.98 664.667 2183C664.987 2183.02 665.315 2182.93 665.583 2182.7L667.544 2181.05C668.08 2180.59 668.158 2179.79 667.7 2179.24L664.961 2175.96C664.512 2175.42 663.708 2175.34 663.164 2175.8L661.798 2176.96C660.978 2176.32 660.139 2175.53 659.336 2174.57C658.532 2173.6 657.902 2172.63 657.426 2171.7L658.792 2170.55C659.327 2170.1 659.405 2169.29 658.947 2168.74L656.208 2165.46C655.759 2164.92 654.955 2164.84 654.411 2165.3L652.449 2166.95C652.181 2167.18 652.035 2167.49 652 2167.81Z" fill="#222222" />
  </g>
</svg>