<?xml version="1.0" encoding="UTF-8"?>
<svg xmlns="http://www.w3.org/2000/svg" width="24" height="24" viewBox="0 0 120 120" fill="none">
  <g transform="translate(-730, -2110)">
    <path fill-rule="evenodd" clip-rule="evenodd" d="M790 2183C794.971 2183 799 2178.97 799 2174C799 2169.03 794.971 2165 790 2165C785.029 2165 781 2169.03 781 2174V2182.06C781 2182.58 781.421 2183 781.945 2183H790ZM793.167 2174C793.167 2173.27 793.758 2172.68 794.486 2172.68C795.215 2172.68 795.805 2173.27 795.806 2174C795.806 2174.73 795.215 2175.32 794.486 2175.32C793.757 2175.32 793.167 2174.73 793.167 2174ZM788.681 2174C788.681 2173.27 789.271 2172.68 790 2172.68C790.729 2172.68 791.319 2173.27 791.319 2174C791.319 2174.73 790.729 2175.32 790 2175.32C789.271 2175.32 788.681 2174.73 788.681 2174ZM784.194 2174C784.194 2173.27 784.785 2172.68 785.514 2172.68C786.242 2172.68 786.833 2173.27 786.833 2174C786.833 2174.73 786.242 2175.32 785.514 2175.32C784.785 2175.32 784.194 2174.73 784.194 2174Z" fill="#222222" />
  </g>
</svg>