<?xml version="1.0" encoding="UTF-8"?>
<svg xmlns="http://www.w3.org/2000/svg" width="24" height="24" viewBox="0 0 120 120" fill="none">
  <g transform="translate(-340, -2110)">
    <path d="M393.682 2167.51C394.047 2166.6 394.929 2166 395.911 2166H404.089C405.071 2166 405.953 2166.6 406.318 2167.51L407.828 2171.29C407.942 2171.57 408 2171.87 408 2172.18V2179.6C408 2180.93 406.925 2182 405.6 2182H394.4C393.075 2182 392 2180.93 392 2179.6V2172.18C392 2171.87 392.058 2171.57 392.172 2171.29L393.682 2167.51Z" stroke="#222222" stroke-width="2" />
    <path d="M393.143 2171.71H397.143V2172.89C397.143 2173.5 397.642 2174 398.257 2174H401.743C402.358 2174 402.857 2173.5 402.857 2172.89V2171.71H406.857" stroke="#222222" stroke-width="2" stroke-linecap="round" stroke-linejoin="round" />
    <path d="M408 2180C408 2181.1 407.105 2182 406 2182H394C392.895 2182 392 2181.1 392 2180V2171.75H397.15V2173C397.15 2173.55 397.598 2174 398.15 2174H401.85C402.402 2174 402.85 2173.55 402.85 2173V2171.75H408V2180Z" fill="#222222" />
  </g>
</svg>