<?xml version="1.0" encoding="UTF-8"?>
<svg xmlns="http://www.w3.org/2000/svg" width="24" height="24" viewBox="0 0 120 120" fill="none">
  <g transform="translate(-80, -2110)">
    <path d="M149.15 2179.5C149.15 2180.93 148.091 2182.25 146.588 2182.25H133.412C131.909 2182.25 130.85 2180.93 130.85 2179.5V2170.74L138.496 2176.14L138.501 2176.15C138.941 2176.45 139.461 2176.62 140 2176.62C140.54 2176.62 141.059 2176.45 141.499 2176.15L149.15 2170.74V2179.5ZM146.588 2165.75C148.019 2165.75 149.044 2166.95 149.14 2168.29C148.919 2168.45 148.68 2168.62 148.423 2168.8L140.356 2174.5L140.353 2174.51C140.238 2174.59 140.116 2174.62 140 2174.62C139.885 2174.62 139.762 2174.59 139.647 2174.51L131.578 2168.8C131.327 2168.62 131.087 2168.45 130.86 2168.29C130.958 2166.95 131.983 2165.75 133.412 2165.75H146.588Z" fill="#222222" />
  </g>
</svg>