<?xml version="1.0" encoding="UTF-8"?>
<svg xmlns="http://www.w3.org/2000/svg" width="24" height="24" viewBox="0 0 120 120" fill="none">
  <g transform="translate(-860, -2110)">
    <path d="M929.252 2173.65C929.464 2173.83 929.464 2174.17 929.252 2174.35L921.911 2180.88C921.605 2181.15 921.122 2180.93 921.122 2180.53V2177.32C921.122 2177.05 920.91 2176.84 920.648 2176.85C917.036 2176.96 914.007 2178.34 911.56 2180.69C911.246 2180.99 910.721 2180.77 910.772 2180.34C911.366 2175.32 915.526 2171.4 920.648 2171.17C920.909 2171.16 921.122 2170.95 921.122 2170.68V2167.47C921.122 2167.07 921.605 2166.85 921.911 2167.12L929.252 2173.65Z" fill="#222222" />
    <path d="M921.911 2167.12L922.575 2166.37L921.911 2167.12ZM920.648 2171.17L920.603 2170.17L920.648 2171.17ZM911.56 2180.69L910.868 2179.97L911.56 2180.69ZM920.648 2176.85L920.617 2175.85L920.648 2176.85ZM921.911 2180.88L921.246 2180.13L921.911 2180.88ZM929.252 2174.35L928.588 2173.61L929.252 2174.35ZM929.252 2173.65L928.588 2174.39L929.252 2173.65ZM929.252 2174.35L928.588 2173.61L921.246 2180.13L921.911 2180.88L922.575 2181.63L929.916 2175.1L929.252 2174.35ZM921.122 2180.53H922.122V2177.32H921.122H920.122V2180.53H921.122ZM920.648 2176.85L920.617 2175.85C916.746 2175.97 913.484 2177.46 910.868 2179.97L911.56 2180.69L912.253 2181.41C914.53 2179.22 917.327 2177.95 920.679 2177.85L920.648 2176.85ZM910.772 2180.34L911.765 2180.46C912.302 2175.92 916.064 2172.37 920.693 2172.17L920.648 2171.17L920.603 2170.17C914.988 2170.42 910.43 2174.72 909.779 2180.22L910.772 2180.34ZM921.122 2170.68H922.122V2167.47H921.122H920.122V2170.68H921.122ZM921.911 2167.12L921.246 2167.87L928.588 2174.39L929.252 2173.65L929.916 2172.9L922.575 2166.37L921.911 2167.12ZM921.122 2167.47H922.122C922.122 2167.93 921.586 2168.17 921.246 2167.87L921.911 2167.12L922.575 2166.37C921.624 2165.53 920.122 2166.2 920.122 2167.47H921.122ZM920.648 2171.17L920.693 2172.17C921.459 2172.13 922.122 2171.51 922.122 2170.68H921.122H920.122C920.122 2170.38 920.36 2170.18 920.603 2170.17L920.648 2171.17ZM911.56 2180.69L910.868 2179.97C911.018 2179.82 911.24 2179.79 911.421 2179.87C911.513 2179.91 911.61 2179.98 911.681 2180.1C911.755 2180.22 911.778 2180.35 911.765 2180.46L910.772 2180.34L909.779 2180.22C909.696 2180.93 910.108 2181.48 910.637 2181.71C911.147 2181.93 911.789 2181.85 912.253 2181.41L911.56 2180.69ZM921.122 2177.32H922.122C922.122 2176.51 921.462 2175.82 920.617 2175.85L920.648 2176.85L920.679 2177.85C920.357 2177.86 920.122 2177.6 920.122 2177.32H921.122ZM921.911 2180.88L921.246 2180.13C921.586 2179.83 922.122 2180.07 922.122 2180.53H921.122H920.122C920.122 2181.8 921.624 2182.47 922.575 2181.63L921.911 2180.88ZM929.252 2174.35L929.916 2175.1C930.576 2174.52 930.576 2173.48 929.916 2172.9L929.252 2173.65L928.588 2174.39C928.352 2174.18 928.352 2173.82 928.588 2173.61L929.252 2174.35Z" fill="#222222" />
  </g>
</svg>