<?xml version="1.0" encoding="UTF-8"?>
<svg xmlns="http://www.w3.org/2000/svg" width="24" height="24" viewBox="0 0 120 120" fill="none">
  <g transform="translate(-470, -2110)">
    <path d="M522.447 2165.11C522.08 2164.92 521.638 2164.98 521.332 2165.26C521.027 2165.53 520.92 2165.96 521.062 2166.35L523.527 2173L530.501 2173.47C530.782 2173.49 531 2173.72 531 2174C531 2174.28 530.782 2174.51 530.501 2174.53L523.527 2175L521.062 2181.65C520.92 2182.04 521.027 2182.47 521.332 2182.74C521.638 2183.02 522.08 2183.08 522.447 2182.89L538.447 2174.89C538.786 2174.72 539 2174.38 539 2174C539 2173.62 538.786 2173.27 538.447 2173.11L522.447 2165.11Z" fill="#222222" />
  </g>
</svg>